<svg version="1.1" xmlns="http://www.w3.org/2000/svg" width="1024" height="1024" viewBox="0 0 1024 1024">
<path d="M119.2,825l87.8,194.2c0,0,125-47.6,198.2-97c103.2-68.2,129-125,129-125s80.6-5.2,134.2,51.6
	c53.8,56.8,108.4,124,108.4,124l121.8-80.6c0,0-43.4-139.4-111.6-194.2S609.4,584.4,609.4,584.4s58.8-5.2,141.4-15.4
	C865.4,554.6,883,522.6,883,522.6l-49-143.8c0,0-61,20.2-115.6,25.8c-44.2,6-84.6-7.2-84.6-7.2l1-25.8c0,0,135.2-29,138.4-173.6
	c2-136.4-108.4-177.6-185.8-177.6c-113.6,0-188,82.6-185.8,183.8c2,101.2,81.6,158,81.6,158s-69.6,46.6-98.6,111.8
	c-50.6,114.6-10.2,224-10.2,224s-14.4,19.6-84.6,76.4C222.6,827.2,119.2,825,119.2,825L119.2,825z"/>
</svg>
