<svg version="1.1" xmlns="http://www.w3.org/2000/svg" width="1024" height="1024" viewBox="0 0 1024 1024">
<path d="M131.6,735.6l153.4-465H168.2c-45.8,0-80,6-103,17.8c-16,8.4-29.4,24-39.8,47H9.6l40.4-175h335.8l-189,575.2H131.6
	L131.6,735.6z M448.6,873.2V855c32.2-13.8,55.4-31.8,70-53.8s21.8-44.6,21.8-67.6c0-4.8-1-8.4-3-10.8c-2-2.2-3.8-3.4-5.8-3.4
	c-1.6,0-4.2,1-7.4,3c-8,4.8-18,7-30,7c-16.4,0-30.6-6.4-42.6-19.2s-18-27.8-18-44.8c0-18.2,7-34.4,20.8-48.2s30.6-20.8,50.2-20.8
	c23.8,0,44.2,9.2,61,27.6s25.4,43.8,25.4,75.8c0,39.6-12,74.8-36,105.6C531.2,836.2,495.8,858.8,448.6,873.2L448.6,873.2z
	 M909,405.6c39.6,29,67.2,56.2,82.4,81.2c15.4,25,23,53.8,23,86.2c0,45.4-17.2,83.8-51.4,115.4c-34.2,31.4-80.6,47.2-139.4,47.2
	c-55.6,0-98.8-13.8-129.2-41.2s-45.8-61-45.8-100.6c0-30.2,8.8-56.6,26.4-79.4s46.8-43.4,87.8-62.4c-44.6-34-73.2-62-85.8-83.6
	s-19-46.6-19-75.2c0-37.6,16-70.8,48-99.6s75.8-43,131.6-43c53.8,0,95,12.6,124,38s43.4,55.8,43.4,91.2c0,26.6-7.8,50-23.4,70.4
	C966.4,371,942,389.2,909,405.6L909,405.6z M794.4,472.2c-8.6,7.8-14.6,14.8-18.2,21.2c-5.6,9.8-10.6,23.8-15,42.4s-6.6,38-6.6,58.2
	c0,26,3.4,47.8,10,65.4s16.2,30.2,28.4,38c12.4,7.8,25,11.6,38,11.6c20.2,0,37.2-7.4,51.2-22.2C896,672,903,651.6,903,626
	C902.8,572.2,866.6,520.8,794.4,472.2L794.4,472.2z M877.4,384.4c10.2-13.8,17.8-29.4,22.8-46.6s7.4-36,7.4-56.6
	c0-36-7.8-63.6-23.2-82.6c-11.6-14.6-27.8-22-48.2-22c-18.6,0-34.4,6.8-47.4,20.2s-19.6,30.2-19.6,50c0,20.2,7.2,41.2,21.8,63
	C805.8,331.6,834.6,356.4,877.4,384.4z"/>
</svg>
