<svg version="1.1" xmlns="http://www.w3.org/2000/svg" width="1024" height="1024" viewBox="0 0 1024 1024">
<path d="M442.8,64v120H431c-7-27.6-14.8-47.6-23.2-59.6s-20.2-21.8-35-29c-8.2-4-22.8-5.8-43.4-5.8h-33v342
	c0,22.6,1.2,36.8,3.8,42.4s7.4,10.6,14.8,14.8c7.2,4.2,17.2,6.4,30,6.4h14.8v12H127.2v-12H142c12.8,0,23.2-2.2,31-6.8
	c5.6-3,10.2-8.2,13.4-15.6c2.4-5.2,3.6-19,3.6-41.2v-342h-32c-29.8,0-51.6,6.4-65,19c-19,17.6-31,42.6-36,75.4H44.6V64L442.8,64
	L442.8,64z M808.6,582.2v182h12.8c19.6,0,35.6-3,48-8.8s23-15.8,31.6-29.8s14.2-32.8,16.8-56.6h11.4v222.6h-11.4
	c-4.2-42-15.4-69.8-33.8-83.2s-39.2-20.2-62.6-20.2h-12.8V924c0,22.6,1.2,36.8,3.8,42.4s7.4,10.6,14.8,14.8
	c7.2,4.2,17.2,6.4,29.6,6.4h14.8v12h-232v-12h14.8c12.8,0,23.2-2.2,31-6.8c5.6-3,10-8.2,13-15.6c2.4-5.2,3.6-19,3.6-41.2V632.4
	c0-22.6-1.2-36.8-3.6-42.4s-7.2-10.6-14.6-14.8c-7.4-4.2-17.2-6.4-29.6-6.4h-14.8v-12h374V684H1000c-3-29.8-10.8-52-23.4-66.4
	S946,593,922.2,587.2c-13-3.2-37.2-5-72.6-5L808.6,582.2L808.6,582.2z M816.7,135L242.8,924.2l-49.5-36L767.2,99L816.7,135
	L816.7,135z"/>
</svg>
