<svg version="1.1" xmlns="http://www.w3.org/2000/svg" width="1024" height="1024" viewBox="0 0 1024 1024">
<path d="M986.027 801.92c0 0-177.707 16.427-177.707-126.080 0-77.013 93.867-243.84 93.867-323.627 0-21.973-7.467-47.573-25.6-68.907-11.093 27.093-52.907 43.307-113.067 11.307-29.44-15.573-40.107-37.973-36.693-56.747-37.333 1.067-72.107 11.093-113.28 35.627-101.547 59.733-336 340.693-336 507.307 0 161.28 158.72 187.52 158.72 187.52-8.533-30.933-18.133-62.933-13.867-84.267 51.84 59.947 95.573 82.133 137.6 92.373-15.36-32.64-17.707-52.48-19.84-72.533 53.333 39.893 116.267 64.213 186.24 77.44-12.8-23.040-13.227-46.933-16.427-69.973 45.227 27.307 93.44 46.293 148.907 43.733-19.84-20.693-34.133-43.307-46.293-62.507 34.133 8.96 39.893 25.6 145.067 16.427-37.76-19.84-54.4-34.133-68.48-47.573 45.653-3.84 86.827-18.347 96.853-59.52zM757.973 580.053c-15.36 1.707-30.080 3.2-44.16 4.053zM566.613 574.080c-84.267-20.267-127.787-65.067-137.387-112.853l68.907-83.2c23.040 98.133 113.067 148.907 364.16 113.067l-29.227 77.013c-23.893 4.693-46.507 8.32-68.053 11.093zM642.987 584.533c-24.32-1.28-46.507-4.267-66.56-8.32zM708.693 584.32c-22.827 1.28-44.16 1.28-63.787 0.427zM894.72 72.107h97.28l-159.787 186.027c-36.267 6.827-48.64-7.467-48.64-32.427l111.147-153.6zM175.573 799.787c0 35.346-28.654 64-64 64s-64-28.654-64-64c0-35.346 28.654-64 64-64s64 28.654 64 64zM47.573 707.413c0 12.724-10.316 23.040-23.040 23.040s-23.040-10.316-23.040-23.040c0-12.724 10.316-23.040 23.040-23.040s23.040 10.316 23.040 23.040zM182.613 645.12c0 25.567-20.726 46.293-46.293 46.293s-46.293-20.726-46.293-46.293c0-25.567 20.726-46.293 46.293-46.293s46.293 20.726 46.293 46.293z"></path>
</svg>
