<?xml version="1.0" encoding="utf-8"?>
<svg version="1.1" xmlns="http://www.w3.org/2000/svg" width="1024" height="1024" viewBox="0 0 1024 1024">
<path d="M832,64H192L0,256v672c0,17.6,14.4,32,32,32h960c17.6,0,32-14.4,32-32V256L832,64z M950,586l-86.1,0.2
	C882.6,557.9,894,519.9,894,478c0-87.3-49.7-158-111-158s-111,70.7-111,158c0,42,11.5,80.3,30.4,108.6l-125.6,0.3
	C594.9,558.7,606,521.2,606,480c0-87.3-49.7-158-111-158s-111,70.7-111,158c0,41.4,11.2,79.1,29.5,107.2L287,587.5
	c19.2-28.4,31-67,31-109.5c0-87.3-49.7-158-111-158S96,390.7,96,478c0,42.7,11.9,81.4,31.2,109.9L76,588V258l142.6-130h587L950,260
	V586z M751,312L751,312c0,0-37.6,1.4-68.4,62.6c-15.6,31.4-14.2,67-22.8,86.4c-3.4,7.8-1,9-20,9c-14,0-15.8,0-18.8-11.2
	c-4.6-17.4-0.2-52.4-29.2-100.6C561.2,307.2,529,312,529,312c0-87.2,49.6-158,111-158S751,224.8,751,312z M459,312L459,312
	c0,0-37.6,1.4-68.4,62.6c-15.6,31.4-14.2,67-22.8,86.4c-3.4,7.8-1,9-20,9c-14,0-15.8,0-18.8-11.2c-4.6-17.4-0.2-52.4-29.2-100.6
	C269.2,307.2,237,312,237,312c0-87.2,49.6-158,111-158S459,224.8,459,312z"/>
</svg>
