<svg version="1.1" xmlns="http://www.w3.org/2000/svg" width="1024" height="1024" viewBox="0 0 1024 1024">
<path d="M950.857 932.571v-621.714q0-7.429-5.429-12.857t-12.857-5.429h-621.714q-7.429 0-12.857 5.429t-5.429 12.857v621.714q0 7.429 5.429 12.857t12.857 5.429h621.714q7.429 0 12.857-5.429t5.429-12.857zM1024 310.857v621.714q0 37.714-26.857 64.571t-64.571 26.857h-621.714q-37.714 0-64.571-26.857t-26.857-64.571v-621.714q0-37.714 26.857-64.571t64.571-26.857h621.714q37.714 0 64.571 26.857t26.857 64.571zM804.571 91.429v91.429h-73.143v-91.429q0-7.429-5.429-12.857t-12.857-5.429h-621.714q-7.429 0-12.857 5.429t-5.429 12.857v621.714q0 7.429 5.429 12.857t12.857 5.429h91.429v73.143h-91.429q-37.714 0-64.571-26.857t-26.857-64.571v-621.714q0-37.714 26.857-64.571t64.571-26.857h621.714q37.714 0 64.571 26.857t26.857 64.571z"></path>
</svg>
