<?xml version="1.0" encoding="utf-8"?>
<svg version="1.1" xmlns="http://www.w3.org/2000/svg" width="1024" height="1024" viewBox="0 0 1024 1024">
<path d="M945.8,297.6c3.7,3.7,5.5,8,5.5,12.8v55.1h73.1v-55.1c0-25.1-8.9-46.6-27-64.7c-17.8-17.8-39.5-27-64.7-27h-91.4v73.1H933
	C938.1,292.3,942.2,294.2,945.8,297.6z M27.2,777.6c17.8,17.8,39.5,27,64.7,27h621.7c25.1,0,46.6-8.9,64.7-27
	c17.8-17.8,27-39.5,27-64.7l0-621.9c0-25.1-8.9-46.6-27-64.7c-17.8-17.8-39.5-27-64.7-27H91.7C66.5-0.7,45,8.2,27,26.3
	C9.1,44.1,0,65.8,0,91l0,621.9C0.2,738.1,9.1,759.5,27.2,777.6L27.2,777.6z M73.4,91c0-5,1.8-9.1,5.5-12.8s8-5.5,12.8-5.5h621.9
	c5,0,9.1,1.8,12.8,5.5s5.5,8,5.5,12.8l0,621.9c0,5-1.8,9.1-5.5,12.8s-8,5.5-12.8,5.5H91.7c-5,0-9.1-1.8-12.8-5.5s-5.5-8-5.5-12.8V91
	z M1024.5,585.1h-73.1V437.7h73.1V585.1L1024.5,585.1z M1024.5,804.6h-73.1V657.1h73.1V804.6z M951.3,932.3c0,5-1.8,9.1-5.5,12.8
	c-3.7,3.7-8,5.5-12.8,5.5h-55.3v73.1H933c25.1,0,46.6-8.9,64.7-27c17.8-17.8,26.7-39.3,26.7-64.5v-55.8h-73.1V932.3L951.3,932.3z
	 M805.5,1023.8H658.1v-73.1h147.4C805.5,950.6,805.5,1023.8,805.5,1023.8z M298.3,945.1c-3.7-3.7-5.5-8-5.5-12.8v-91.4h-73.1v91.4
	c0,25.1,8.9,46.6,27,64.7c17.8,17.8,39.5,27,64.7,27h55.5v-73.1h-55.5C306.3,950.6,301.9,948.8,298.3,945.1L298.3,945.1z
	 M586.1,1023.8H438.6v-73.1h147.4L586.1,1023.8L586.1,1023.8z"/>
</svg>
