<?xml version="1.0" encoding="utf-8"?>
<svg version="1.1" xmlns="http://www.w3.org/2000/svg" width="1024" height="1024" viewBox="0 0 1024 1024">
<path d="M300.7,367.5c13.3,14.1,12.7,36.3-1.3,49.6c-14.1,13.3-36.3,12.7-49.6-1.3s-12.7-36.3,1.3-49.6
	C265.2,352.9,287.4,353.4,300.7,367.5z M856.5,633.7c-14.1-13.3-36.3-12.7-49.6,1.3c-13.3,14.1-12.7,36.3,1.3,49.6
	c14.1,13.3,36.3,12.7,49.6-1.3C871.1,669.2,870.5,647,856.5,633.7z M1024.1,650.1c0,56.6-19.8,104.8-59.9,144.9
	c-40.2,39.8-88.3,59.9-144.9,59.9H239c-65.7,0-122-23.4-168.8-70.2S0,681.6,0,615.9c0-47,12.6-89.8,37.5-128.6
	c25.4-39,58.7-68.1,99.9-87.3c-0.5-10.1-1-17.8-1-23.1c0-75.3,26.7-139.8,80-193.1c53.4-53.3,117.8-80,193.1-80
	c56.2,0,107.1,15.6,152.8,47c45.7,31.4,79.2,72.1,100.1,122.7c25-21.9,54.4-33,88.6-33c37.8,0,70,13.4,96.2,40.1
	c26.8,26.6,40.1,58.8,40.1,96.6c0,26.6-7.2,51.2-21.7,73.6c45.8,10.7,83.8,34.5,113.7,71.7C1009.2,559.6,1024.1,602.1,1024.1,650.1z
	 M429.4,445.4l42.9,1.1l33.9-32.2l32.2,33.9l33.9-32.2l32.2,33.9l33.9-32.2l16.1,17l17-16.1c9.4-8.9,9.8-23.7,0.9-33.1l-48.3-50.9
	L423,329.4c-3.8-5.9-8.3-11.6-13.3-16.9c-44.5-46.9-118.5-48.8-165.4-4.4c-46.9,44.5-48.8,118.5-4.4,165.4
	c44.5,46.9,118.5,48.8,165.4,4.4C415.5,468.2,423.5,457.2,429.4,445.4z M863.3,575.6c-46.9-44.5-120.9-42.5-165.4,4.4
	c-5,5.3-9.5,11-13.3,16.9l-201.2,5.3l-48.3,50.9c-8.9,9.4-8.5,24.2,0.9,33.1l17,16.1l16.1-17l33.9,32.2l32.2-33.9l33.9,32.2
	l32.2-33.9l33.9,32.2l42.9-1.1c5.9,11.8,14,22.8,24.1,32.5c46.9,44.5,120.9,42.5,165.4-4.4C912.1,694.1,910.1,620.1,863.3,575.6z"/>
</svg>
