<?xml version="1.0" encoding="utf-8"?>
<!-- Generator: Adobe Illustrator 20.1.0, SVG Export Plug-In . SVG Version: 6.00 Build 0)  -->
<svg version="1.1" id="Layer_1" xmlns="http://www.w3.org/2000/svg" xmlns:xlink="http://www.w3.org/1999/xlink" x="0px" y="0px"
	 viewBox="0 0 1024 1024" style="enable-background:new 0 0 1024 1024;" xml:space="preserve">
<path d="M979.3,522.5L979.3,522.5c-29.9-37.2-67.9-61-113.7-71.7c14.5-22.4,21.7-47,21.7-73.6c0-37.8-13.3-70-40.1-96.6
	c-26.2-26.7-58.4-40.1-96.2-40.1c-34.2,0-63.6,11.1-88.6,33c-20.9-50.6-54.4-91.3-100.1-122.7s-96.6-47-152.8-47
	c-75.3,0-139.7,26.7-193.1,80c-53.3,53.3-80,117.8-80,193.1c0,5.3,0.5,13,1,23.1c-41.2,19.2-74.5,48.3-99.9,87.3
	C12.6,526.1,0,568.9,0,615.9c0,65.7,23.4,122,70.2,168.8s103.1,70.2,168.8,70.2h580.3c56.6,0,104.7-20.1,144.9-59.9
	c40.1-40.1,59.9-88.3,59.9-144.9C1024.1,602.1,1009.2,559.6,979.3,522.5L979.3,522.5z M727.9,709.7c-42.1,0-76.2-34.1-76.2-76.2
	c0-12.6,3.1-24.5,8.5-34.9L557,505c-13.9,11-30.3,18.9-48.3,22.6l0.1,113.2c32.8,8.5,57,38.3,57,73.7c0,42.1-34.1,76.2-76.2,76.2
	s-76.2-34.1-76.2-76.2c0-34.1,22.4-63,53.3-72.7l-0.1-113.3c-19.1-3-36.6-10.7-51.4-21.8l-79.5,67.5c5,10.1,7.8,21.5,7.8,33.5
	c0,42.1-34.1,76.2-76.2,76.2s-76.2-34.1-76.2-76.2c0-42.1,34.1-76.2,76.2-76.2c14.8,0,28.6,4.2,40.2,11.5l79.2-67.3
	c-11.2-17.8-17.7-39-17.7-61.7c0-64.1,51.9-116,116-116s116,51.9,116,116c0,21.7-6,42-16.3,59.4L689,568.1
	c11.4-6.8,24.7-10.7,38.9-10.7c42.1,0,76.2,34.1,76.2,76.2C804,675.6,769.9,709.7,727.9,709.7L727.9,709.7z"/>
</svg>
