<?xml version="1.0" encoding="utf-8"?>
<!-- Generator: Adobe Illustrator 20.1.0, SVG Export Plug-In . SVG Version: 6.00 Build 0)  -->
<svg version="1.1" id="Layer_1" xmlns="http://www.w3.org/2000/svg" xmlns:xlink="http://www.w3.org/1999/xlink" x="0px" y="0px"
	 viewBox="0 0 1024 1024" style="enable-background:new 0 0 1024 1024;" xml:space="preserve">
<path d="M979.3,522.5L979.3,522.5c-29.9-37.2-67.9-61-113.7-71.7c14.5-22.4,21.7-47,21.7-73.6c0-37.8-13.3-70-40.1-96.6
	c-26.2-26.7-58.4-40.1-96.2-40.1c-34.2,0-63.6,11.1-88.6,33c-20.9-50.6-54.4-91.3-100.1-122.7s-96.6-47-152.8-47
	c-75.3,0-139.7,26.7-193.1,80c-53.3,53.3-80,117.8-80,193.1c0,5.3,0.5,13,1,23.1c-41.2,19.2-74.5,48.3-99.9,87.3
	C12.6,526.1,0,568.9,0,615.9c0,65.7,23.4,122,70.2,168.8s103.1,70.2,168.8,70.2h580.3c56.6,0,104.7-20.1,144.9-59.9
	c40.1-40.1,59.9-88.3,59.9-144.9C1024.1,602.1,1009.2,559.6,979.3,522.5L979.3,522.5z M267.4,320.6h460.2v115.1H267.4V320.6z
	 M765.6,752c0,8-2.8,14.7-8.4,20.3s-12.3,8.4-20.3,8.4h-95.8c-8,0-14.7-2.8-20.3-8.4s-8.4-12.3-8.4-20.3v-95.7
	c0-8,2.8-14.7,8.4-20.3s12.3-8.4,20.3-8.4h28.8V551H516.6v76.5h28.8c8,0,14.7,2.8,20.3,8.4s8.4,12.3,8.4,20.3v95.8
	c0,8-2.8,14.7-8.4,20.3s-12.3,8.4-20.3,8.4h-95.7c-8,0-14.7-2.8-20.3-8.4s-8.4-12.3-8.4-20.3v-95.8c0-8,2.8-14.7,8.4-20.3
	s12.3-8.4,20.3-8.4h28.8V551H325v76.5h28.8c8,0,14.7,2.8,20.3,8.4s8.4,12.3,8.4,20.3v95.8c0,8-2.8,14.7-8.4,20.3s-12.3,8.4-20.3,8.4
	H258c-8,0-14.7-2.8-20.3-8.4s-8.4-12.3-8.4-20.3v-95.8c0-8,2.8-14.7,8.4-20.3s12.3-8.4,20.3-8.4h28.8V551c0-10.5,3.8-19.4,11.4-27
	c7.7-7.6,16.5-11.4,27-11.4h153.3v-58h38.4v57.9h153c10.5,0,19.4,3.8,27,11.4c7.6,7.7,11.4,16.5,11.4,27v76.5h28.8
	c8,0,14.7,2.8,20.3,8.4l0,0c5.6,5.6,8.4,12.5,8.4,20.5L765.6,752L765.6,752z M573.7,358.7h114.8v38.4H573.7V358.7z"/>
</svg>
