<svg version="1.1" id="Layer_1" xmlns="http://www.w3.org/2000/svg" xmlns:xlink="http://www.w3.org/1999/xlink" x="0px" y="0px"
	 viewBox="0 0 1024 1024" style="enable-background:new 0 0 1024 1024;" xml:space="preserve">
<path d="M698.1,320.7C687.3,138,535.7-6.9,350.2-6.9c-22.3,0-44.1,2.1-65.2,6.1l-2-2l-2.9,2.9C121.2,32.6,1.7,173.1,1.7,341.6
	c0,185.5,144.9,337.1,327.6,347.9c10.8,182.7,162.4,327.6,347.9,327.6c192.5,0,348.5-156,348.5-348.5
	C1025.7,483.1,880.8,331.5,698.1,320.7z M896.6,834.1L842.6,888c-22,16.7-46.7,30.1-73.2,39.5l166.6-166.6
	C926.6,787.4,913.2,812,896.6,834.1z M403,686.2c12-1.8,23.8-4.3,35.4-7.3l-32.6,32.6C404.5,703.2,403.5,694.8,403,686.2z
	 M104.7,218L226.6,96.1c16.6-8.4,34.3-15.1,52.6-20L84.7,270.6C89.6,252.2,96.3,234.6,104.7,218z M75.4,341.6c0-6.7,0.3-13.4,0.7-20
	L330.2,67.5c6.6-0.5,13.3-0.7,20-0.7c4.7,0,9.5,0.1,14.1,0.4L75.8,355.7C75.5,351.1,75.4,346.3,75.4,341.6z M402.2,71.7
	c9.2,1.8,18.3,4,27.1,6.6L87,420.7c-2.7-8.9-4.9-17.9-6.6-27.1L402.2,71.7z M460.3,89.8c7.7,3.4,15.3,7.1,22.6,11.2L109.6,474.4
	c-4.1-7.3-7.8-14.9-11.2-22.6L460.3,89.8z M509,117.3c6.6,4.7,12.9,9.6,19,14.8L140.7,519.4c-5.2-6.1-10.1-12.4-14.8-19L509,117.3z
	 M549.8,152.8c5.5,5.8,10.7,11.8,15.7,18.1l-386,386c-6.3-5-12.3-10.2-18.1-15.7L549.8,152.8z M583.1,195.7
	c4.4,7,8.5,14.2,12.2,21.5L225.9,586.6c-7.4-3.8-14.6-7.8-21.6-12.2L583.1,195.7z M409.7,445.3c-21.8,26.1-39.8,55.4-53.3,87.1
	l-75.2,75.2c-8.8-2.3-17.3-5-25.7-8L409.7,445.3z M454,401l154.2-154.2c3.1,8.4,5.8,17,8,25.7L541,347.7
	C509.3,361.2,480,379.2,454,401z M622.9,308.2c0.6,5.2,1.1,10.5,1.5,15.8c-7.1,1.1-14.2,2.4-21.2,3.9L622.9,308.2z M554.7,546.1
	C494.1,603.5,403,615.8,403,615.8s10.8-91.1,73.8-148.1c63-57,147.6-73.2,147.6-73.2S615.3,488.7,554.7,546.1z M506.5,653.2
	C573.5,619.6,628.1,565,661.7,498l93-93c8.5,2.5,16.9,5.4,25.1,8.7L422.3,771.2c-3.3-8.2-6.2-16.5-8.7-25.1L506.5,653.2z
	 M808.6,427.4c7.2,3.9,14.2,8.2,21.1,12.7l-381,381c-4.6-6.8-8.8-13.8-12.7-21.1L808.6,427.4z M853.9,458.3
	c6.1,5.1,12,10.5,17.6,16.2L483,863c-5.6-5.6-11-11.5-16.2-17.6L853.9,458.3z M891.6,496.9c5.1,6.3,9.8,12.8,14.3,19.6L524.9,897.4
	c-6.7-4.5-13.3-9.3-19.5-14.3L891.6,496.9z M921.6,543.1c3.9,7.5,7.4,15.3,10.6,23.2L574.8,923.7c-7.9-3.2-15.6-6.7-23.2-10.6
	L921.6,543.1z M942.8,598.2c2.4,9.1,4.4,18.4,5.8,27.9l-314,314c-9.5-1.5-18.8-3.4-27.9-5.8L942.8,598.2z M720.1,397.3l-32.6,32.6
	c3-11.6,5.5-23.4,7.3-35.4C703.3,395,711.7,396,720.1,397.3z M316.8,614.3l19.8-19.8c-1.5,7-2.8,14.1-3.9,21.3
	C327.4,615.5,322.1,615,316.8,614.3z M673.7,943.4l278.1-278.1c0,1.2,0,2.3,0,3.5c0,12.3-0.8,24.4-2.4,36.3l-236,236
	c-11.9,1.6-24,2.4-36.3,2.4C676,943.4,674.9,943.4,673.7,943.4z"/>
</svg>
