<svg version="1.1" id="Layer_1" xmlns="http://www.w3.org/2000/svg" xmlns:xlink="http://www.w3.org/1999/xlink" x="0px" y="0px"
	 viewBox="0 0 1024 1024" style="enable-background:new 0 0 1024 1024;" xml:space="preserve">
<path d="M698.1,320.7C687.3,138,535.7-6.9,350.2-6.9C157.7-6.9,1.7,149.1,1.7,341.6c0,185.5,144.9,337.1,327.6,347.9
	c10.8,182.7,162.4,327.6,347.9,327.6c192.5,0,348.5-156,348.5-348.5C1025.7,483.1,880.8,331.5,698.1,320.7z M403,615.8
	c0,0,0.6-5.2,2.4-13.8l203.8-203.8c9.5-2.6,15.2-3.7,15.2-3.7s-1,10.7-4.7,27L431.4,609.8C414.2,614.3,403,615.8,403,615.8z
	 M426.2,538.8c11.1-24.1,27.3-50,50.7-71.1c20-18.1,42.3-32.1,63.3-42.8L426.2,538.8z M597.4,486.2c-10.1,20.9-23.9,42.2-42.7,59.9
	c-17,16.1-36.5,28.7-55.6,38.4L597.4,486.2z M75.4,341.6c0-151.7,123-274.8,274.8-274.8c145.9,0,265.1,113.7,274.2,257.2
	c-150.2,22.9-268.9,141.6-291.7,291.8C189.1,606.7,75.4,487.5,75.4,341.6z M403,686.2c150.2-22.8,268.9-141.5,291.7-291.7
	c143.6,9,257.2,128.3,257.2,274.2c0,62.2-20.6,119.5-55.5,165.6l-53.6,53.6c-46.1,34.9-103.4,55.6-165.6,55.6
	C531.3,943.4,412.1,829.7,403,686.2z"/>
</svg>
