<svg version="1.1" id="Layer_1" xmlns="http://www.w3.org/2000/svg" xmlns:xlink="http://www.w3.org/1999/xlink" x="0px" y="0px"
	 viewBox="0 0 1024 1024" style="enable-background:new 0 0 1024 1024;" xml:space="preserve">
<path d="M698.1,320.7C687.3,138,535.7-6.9,350.2-6.9C157.7-6.9,1.7,149.1,1.7,341.6c0,185.5,144.9,337.1,327.6,347.9
	c10.8,182.7,162.4,327.6,347.9,327.6c192.5,0,348.5-156,348.5-348.5C1025.7,483.1,880.8,331.5,698.1,320.7z M75.4,341.6
	c0-151.7,123-274.8,274.8-274.8c145.9,0,265.1,113.7,274.2,257.2c-150.2,22.9-268.9,141.6-291.7,291.8
	C189.1,606.7,75.4,487.5,75.4,341.6z M624.4,394.5c0,0-9.1,94.2-69.7,151.6S403,615.8,403,615.8s10.8-91.1,73.8-148.1
	C539.8,410.7,624.4,394.5,624.4,394.5z M677.2,943.4c-145.9,0-265.1-113.7-274.2-257.2c150.2-22.8,268.9-141.5,291.7-291.7
	c143.6,9,257.2,128.3,257.2,274.2C952,820.3,828.9,943.4,677.2,943.4z"/>
<g>
	<rect x="221" y="-62.3" transform="matrix(0.7071 0.7071 -0.7071 0.7071 222.3436 -103.3842)" width="30" height="558"/>
	<rect x="180.8" y="-58.7" transform="matrix(0.7071 0.7071 -0.7071 0.7071 185.1071 -85.4966)" width="30" height="478.9"/>
	<rect x="145.4" y="-47.4" transform="matrix(0.7071 0.7071 -0.7071 0.7071 146.7379 -72.0673)" width="30" height="377"/>
	<rect x="259.1" y="-24.2" transform="matrix(0.7071 0.7071 -0.7071 0.7071 260.4512 -119.1689)" width="30" height="558"/>
	<rect x="291.2" y="11.4" transform="matrix(0.7071 0.7071 -0.7071 0.7071 301.05 -128.9399)" width="30" height="575"/>
	<rect x="329.3" y="49.5" transform="matrix(0.7071 0.7071 -0.7071 0.7071 339.1576 -144.7245)" width="30" height="575"/>
	<rect x="367.4" y="87.7" transform="matrix(0.7071 0.7071 -0.7071 0.7071 377.2654 -160.5092)" width="30" height="575"/>
	<rect x="411.5" y="128.3" transform="matrix(0.7071 0.7071 -0.7071 0.7071 412.8817 -182.3076)" width="30" height="558"/>
	<rect x="449.6" y="166.4" transform="matrix(0.7071 0.7071 -0.7071 0.7071 450.9893 -198.0923)" width="30" height="558"/>
	<rect x="482.6" y="239.2" transform="matrix(0.7071 0.7071 -0.7071 0.7071 491.237 -208.7125)" width="30" height="498.9"/>
	<rect x="525.7" y="271.1" transform="matrix(0.7071 0.7071 -0.7071 0.7071 527.2678 -229.5102)" width="30" height="501.2"/>
	<rect x="563.9" y="280.7" transform="matrix(0.7071 0.7071 -0.7071 0.7071 565.3122 -245.4464)" width="30" height="558"/>
	<rect x="602" y="318.8" transform="matrix(0.7071 0.7071 -0.7071 0.7071 603.4198 -261.2311)" width="30" height="558"/>
	<rect x="634.1" y="354.4" transform="matrix(0.7071 0.7071 -0.7071 0.7071 644.0187 -271.002)" width="30" height="575"/>
	<rect x="677.5" y="379.8" transform="matrix(0.7071 0.7071 -0.7071 0.7071 679.9388 -292.0689)" width="30" height="589.9"/>
	<rect x="716.4" y="433.1" transform="matrix(0.7071 0.7071 -0.7071 0.7071 717.7426 -308.5851)" width="30" height="558"/>
	<rect x="716.4" y="433.1" transform="matrix(0.7071 0.7071 -0.7071 0.7071 717.7426 -308.5851)" width="30" height="558"/>
	<rect x="754.5" y="471.2" transform="matrix(0.7071 0.7071 -0.7071 0.7071 755.8502 -324.3698)" width="30" height="558"/>
	<rect x="790" y="520.1" transform="matrix(0.7071 0.7071 -0.7071 0.7071 795.0283 -337.5737)" width="30" height="541.7"/>
	<rect x="828.1" y="622.9" transform="matrix(0.7071 0.7071 -0.7071 0.7071 835.6738 -352.2664)" width="30" height="419.5"/>
	<rect x="868.6" y="723.4" transform="matrix(0.7071 0.7071 -0.7071 0.7071 872.7636 -370.5182)" width="30" height="289.7"/>
</g>
</svg>
