<svg version="1.1" id="Layer_1" xmlns="http://www.w3.org/2000/svg" xmlns:xlink="http://www.w3.org/1999/xlink" x="0px" y="0px"
	 viewBox="0 0 1024 1024" style="enable-background:new 0 0 1024 1024;" xml:space="preserve">
<path d="M698.1,320.7C687.3,138,535.7-6.9,350.2-6.9C157.7-6.9,1.7,149.1,1.7,341.6c0,185.5,144.9,337.1,327.6,347.9
	c10.8,182.7,162.4,327.6,347.9,327.6c192.5,0,348.5-156,348.5-348.5C1025.7,483.1,880.8,331.5,698.1,320.7z M75.4,341.6
	c0-151.7,123-274.8,274.8-274.8c145.9,0,265.1,113.7,274.2,257.2c-150.2,22.9-268.9,141.6-291.7,291.8
	C189.1,606.7,75.4,487.5,75.4,341.6z M624.4,394.5c0,0-9.1,94.2-69.7,151.6S403,615.8,403,615.8s10.8-91.1,73.8-148.1
	C539.8,410.7,624.4,394.5,624.4,394.5z M677.2,943.4c-145.9,0-265.1-113.7-274.2-257.2c150.2-22.8,268.9-141.5,291.7-291.7
	c143.6,9,257.2,128.3,257.2,274.2C952,820.3,828.9,943.4,677.2,943.4z"/>
<g>
	<rect x="482.6" y="239.2" transform="matrix(0.7071 0.7071 -0.7071 0.7071 491.237 -208.7125)" width="30" height="498.9"/>
	<rect x="525.7" y="271.1" transform="matrix(0.7071 0.7071 -0.7071 0.7071 527.2678 -229.5102)" width="30" height="501.2"/>
	<rect x="868.6" y="723.4" transform="matrix(0.7071 0.7071 -0.7071 0.7071 872.7636 -370.5182)" width="30" height="289.7"/>
</g>
</svg>
