<?xml version="1.0" encoding="utf-8"?>
<!-- Generator: Adobe Illustrator 20.1.0, SVG Export Plug-In . SVG Version: 6.00 Build 0)  -->
<svg version="1.1" id="Layer_1" xmlns="http://www.w3.org/2000/svg" xmlns:xlink="http://www.w3.org/1999/xlink" x="0px" y="0px"
	 viewBox="0 0 1024 1024" style="enable-background:new 0 0 1024 1024;" xml:space="preserve">
<path d="M890.6,641.3c13.8-40.6,21.4-84,21.4-129.3c0-52.4-10.1-102.5-28.4-148.4c41.7-29.8,68.8-78.7,68.8-133.8
	c0-90.9-73.6-164.5-164.5-164.5c-56.5,0-106.3,28.5-136,71.9C608.4,120.9,561.2,112,512,112c-152.3,0-284.7,85.1-352.3,210.4
	c-8.9-2.9-18.4-4.4-28.2-4.4C81,318,40,359,40,409.5c0,43.9,30.9,80.6,72.2,89.5c-0.1,4.3-0.2,8.7-0.2,13
	c0,119.9,52.7,227.4,136.2,300.7c-11,18.7-17.2,40.5-17.2,63.8c0,69.9,56.6,126.5,126.5,126.5c58,0,106.9-39.1,121.8-92.3
	c10.8,0.9,21.7,1.3,32.7,1.3c120.4,0,228.4-53.2,301.7-137.4c12.1,7.9,26.6,12.6,42.2,12.6c42.6,0,77.1-34.5,77.1-77.1
	C933,680,915.8,654,890.6,641.3z M512,882.6c-9.5,0-18.8-0.4-28.1-1.1c0.1-1.7,0.1-3.4,0.1-5c0-69.9-56.6-126.5-126.5-126.5
	c-36,0-68.5,15-91.5,39.2C189.5,721.3,141.4,622.3,141.4,512c0-3.9,0.1-7.7,0.2-11.6c45.8-5,81.4-43.8,81.4-90.9
	c0-30.2-14.6-57-37.2-73.6C248.5,220.1,371.1,141.4,512,141.4c44,0,86.3,7.7,125.5,21.8c-9,20.4-14.1,42.9-14.1,66.6
	c0,90.9,73.6,164.5,164.5,164.5c25,0,48.8-5.6,70-15.6c15.9,41.4,24.7,86.3,24.7,133.3c0,42.5-7.2,83.3-20.3,121.3
	c-2.1-0.2-4.2-0.3-6.4-0.3c-42.6,0-77.1,34.5-77.1,77.1c0,16.4,5.1,31.5,13.8,44C724.7,832.8,624.2,882.6,512,882.6z"/>
</svg>
