<?xml version="1.0" encoding="utf-8"?>
<svg version="1.1" xmlns="http://www.w3.org/2000/svg" width="1024" height="1024" viewBox="0 0 1024 1024">
<path d="M502.857 438.857c90.286 0 174.629-8.229 253.257-24.686s140.343-40.686 185.6-72.686l-58.971 170.514c-39.314 22.4-92.571 40.229-160 53.486s-140.571 19.657-219.886 19.657-152.686-6.629-219.886-19.657-104.914-28.8-144.914-49.6l-74.057-174.171c45.257 32 107.2 56.229 185.6 72.686s162.971 24.457 253.257 24.457zM502.857 877.714c90.286 0 174.629-8.229 253.257-24.686s140.343-40.686 185.6-72.686v97.371c0 26.286-19.657 50.743-58.971 73.143s-92.571 40.229-160 53.486-140.571 19.657-219.886 19.657-152.686-6.629-219.886-19.657-120.686-30.857-160-53.486-58.971-46.857-58.971-73.143v-97.143c45.257 32 107.2 56.229 185.6 72.686s162.971 24.457 253.257 24.457zM502.857 658.286c90.286 0 174.629-8.229 253.257-24.686s78.629-16.457 123.886-48.457l61.714 73.143c0 26.286-19.657 50.743-58.971 73.143s-92.571 40.229-160 53.486-140.571 19.657-219.886 19.657-152.686-6.629-219.886-19.657-120.686-30.857-160-53.486-58.971-46.857-58.971-73.143l73.143-73.143c45.257 32 34.057 32.229 112.457 48.457s162.971 24.686 253.257 24.686zM502.857 0c79.314 0 152.686 6.629 219.886 19.657s120.686 30.857 160 53.486 58.971 46.857 58.971 73.143v73.143c0 26.286-19.657 50.743-58.971 73.143s-92.571 40.229-160 53.486-140.571 19.657-219.886 19.657-152.686-6.629-219.886-19.657-120.686-30.857-160-53.486-58.971-46.857-58.971-73.143v-73.143c0-26.286 19.657-50.743 58.971-73.143s92.571-40.229 160-53.486 140.571-19.657 219.886-19.657z"></path>
</svg>
