<?xml version="1.0" encoding="utf-8"?>
<svg version="1.1" xmlns="http://www.w3.org/2000/svg" width="1024" height="1024" viewBox="0 0 1024 1024">
<path d="M822.1,753.6l5.2-0.1c-1.7,0.6-3.4,1.3-5.2,1.9L822.1,753.6z M555.8,873.1c-17,0.6-34.3,0.9-51.8,0.9
	c-89.6,0-173.3-8.1-251.2-24.4c-77.9-16.3-139.3-40.3-184.3-72l0,96.4c0,26.1,19.5,50.3,58.4,72.6s91.8,40,158.8,53
	s139.7,19.6,218.3,19.6c51.9,0,101.3-2.8,148.1-8.5C606,981.5,570.9,932.2,555.8,873.1z M127,293.5c38.9,22.3,91.8,40,158.8,53
	c66.9,13,139.7,19.6,218.3,19.6s151.4-6.5,218.3-19.6c66.9-13,119.8-30.7,158.8-53c38.9-22.3,58.4-46.5,58.4-72.6v-72.6
	c0-26.1-19.5-50.3-58.4-72.6c-38.9-22.3-91.8-40-158.8-53S582.6,3.2,504,3.2S352.6,9.7,285.7,22.8S165.9,53.5,127,75.8
	s-58.4,46.5-58.4,72.6l0,72.6C68.6,247,88,271.2,127,293.5z M127,728.9c38.9,22.3,91.8,40,158.8,53s139.7,19.6,218.3,19.6
	c14.8,0,29.3-0.2,43.6-0.7c1.4-56.6,20.4-108.2,50.9-147.6c-30.8,2.1-62.3,3.2-94.6,3.2c-89.6,0-173.3-8.1-251.2-24.4
	s-139.3-40.3-184.3-72l0,96.4C68.6,682.4,88,706.6,127,728.9z M127,511.2c38.9,22.3,91.8,40,158.8,53c66.9,13,139.7,19.6,218.3,19.6
	s151.4-6.5,218.3-19.6s119.8-30.7,158.8-53c38.9-22.3,58.4-46.5,58.4-72.6v-96.4c-45,31.8-106.4,55.8-184.3,72
	S593.6,438.6,504,438.6s-173.3-8.1-251.2-24.4s-139.3-40.3-184.3-72l0,96.4C68.6,464.7,88,488.9,127,511.2z M872.5,1008.9v-50.9
	l134.4-0.1v-80.5H872.5l0.6-116.8l133.8-1.1v-89.6l-134.4-1.1v-63h-72.4c-111.3,0-201.6,90.2-201.6,201.6
	c0,111.3,90.2,201.6,201.6,201.6H872.5z"/>
</svg>
