<?xml version="1.0" encoding="utf-8"?>
<!-- Generator: Adobe Illustrator 20.1.0, SVG Export Plug-In . SVG Version: 6.00 Build 0)  -->
<svg version="1.1" id="Layer_1" xmlns="http://www.w3.org/2000/svg" xmlns:xlink="http://www.w3.org/1999/xlink" x="0px" y="0px"
	 viewBox="0 0 1024 1024" style="enable-background:new 0 0 1024 1024;" xml:space="preserve">
<path d="M30.3,960.7C52.9,833.3,156.7,853,247.6,839.9c-11.6-39.8-23.6-76.2-32.8-113.3c-37-148.6,35.4-245.3,188.1-252.3
	c10.5-0.5,21.1-1.6,36.6-2.7c-7.9-26.3-12.6-50.4-22.1-72.5c-35.6-82.3-20-159.2,30.8-227.2c16.6-22.2,52.5-38.6,81.2-41.4
	c85.4-8.2,172-3.9,257.2-12.9c73-7.7,144.8-27.1,209.8-39.9c-24.1,98.8-50,120.5-201.5,151.1c31.3,81.4,42.7,158.2-1.6,244.6
	C745,567.6,664.3,569,578,580.8c12,35.9,23.2,67.5,33.3,99.6c40.6,129.2-43,255.2-177.4,262.5c-112.4,6.1-225.1,6.2-337.6,9.7
	C75.1,953.3,54,957.7,30.3,960.7L30.3,960.7z M789.1,425.8c-24.8-61.5-46.6-118.2-71-173.7c-4.9-11.1-19.3-25.3-29.7-25.6
	c-76.3-2.2-152.7-1.2-247.3-1.2c31.1,88.5,55.7,160.2,82,231.4c2.8,7.5,15.6,16,23.8,16.2C627.6,474,707.6,470.1,789.1,425.8z
	 M264.2,578.4c-3.9,7.1-7.7,14.3-11.6,21.4c24.9,72,48.8,144.5,75.7,215.7c4.4,11.6,22.8,26.7,33.5,25.8
	c60-5.1,119.8-13.9,179.5-23.1c29.1-4.5,38.5-22.9,27-50.5c-22.5-54.3-44.5-108.9-68.8-162.3c-5.1-11.2-19-25.5-29.3-25.9
	C401.6,577.3,332.9,578.4,264.2,578.4L264.2,578.4z"/>
</svg>
