<?xml version="1.0" encoding="utf-8"?>
<svg version="1.1" xmlns="http://www.w3.org/2000/svg" width="1024" height="1024" viewBox="0 0 1024 1024">
<path d="M200.7,941.1H12.3V127h189.4v35.8H76.8v743.4h124.9v34.8L200.7,941.1z"/>
<path d="M816.1,127h189.4v815.1H816.1v-35.8h124.9V162.8H816.1V127L816.1,127z"/>
<path d="M404.5,349.2c62.5-75.8,122.9-113.7,180.2-113.7c29.7,0,54.3,7.2,75.8,21.5s37.9,38.9,50.2,72.7
	c8.2,23.6,13.3,59.4,13.3,107.5v229.4c0,33.8,3.1,57.3,8.2,69.6c4.1,10.2,11.3,17.4,20.5,22.5s27.6,8.2,53.2,8.2v21.5H540.7V767
	h11.3c24.6,0,43-4.1,52.2-11.3c10.2-7.2,17.4-18.4,20.5-33.8c2-6.1,2-24.6,2-55.3V447.5c0-49.2-6.1-84-19.5-106.5
	c-12.3-22.5-33.8-32.8-64.5-32.8c-46.1,0-93.2,25.6-139.3,75.8v283.6c0,36.9,2,58.4,6.1,67.6c5.1,11.3,13.3,19.5,22.5,24.6
	s28.7,8.2,58.4,8.2v20.5H226.3V767h11.3c27.6,0,46.1-7.2,55.3-20.5c9.2-14.3,14.3-39.9,14.3-79.9V468c0-64.5-1-103.4-4.1-117.8
	s-7.2-23.6-13.3-28.7s-14.3-7.2-24.6-7.2c-11.3,0-23.6,3.1-38.9,9.2l-9.2-21.5l162.8-66.6h25.6v113.7L404.5,349.2z"/>
</svg>
