<?xml version="1.0" encoding="utf-8"?>
<svg version="1.1" xmlns="http://www.w3.org/2000/svg" width="1024" height="1024" viewBox="0 0 1024 1024">
<path d="M468.8,181.6H302.4V15.2c0-8.4-6.8-15.2-15.2-15.2h-90.8c-8.4,0-15.2,6.8-15.2,15.2v166.4H14.8c-8.4,0-15.2,6.8-15.2,15.2
	v90.8c0,8.4,6.8,15.2,15.2,15.2h166.4v166.4c0,8.4,6.8,15.2,15.2,15.2h90.8c8.4,0,15.2-6.8,15.2-15.2V302.8h166.4
	c8.4,0,15.2-6.8,15.2-15.2v-90.8C484,188.2,477.2,181.6,468.8,181.6z M722.8,707.2H556.4c-8.4,0-15.2,6.8-15.2,15.2v90.8
	c0,8.4,6.8,15.2,15.2,15.2h453.8c8.4,0,15.2-6.8,15.2-15.2v-90.8c0-8.4-6.8-15.2-15.2-15.2H722.8L722.8,707.2z M99.2,855.4
	l72.8,75.4c1.6,1.6,4,1.6,5.6,0.2l747-720.6c1.6-1.6,1.6-4,0.2-5.6L852,129.2c-1.6-1.6-4-1.6-5.6-0.2l-747,720.8
	C97.8,851.2,97.6,853.8,99.2,855.4L99.2,855.4z"/>
</svg>
