<?xml version="1.0" encoding="utf-8"?>
<svg version="1.1" xmlns="http://www.w3.org/2000/svg" width="1024" height="1024" viewBox="0 0 1024 1024">
<path d="M0,64v896h1024V64H0z M946,704v192H384V704H946z M946,192v192H384V192H946z M320,192v704H64V192H320z M512,448h-64H512z
	 M384,448h64v64h-64V448z M448,512h64v64h-64V512z M384,576h64v64h-64V576z M448,640h64H448z M896,448h64v64h-64V448z M512,448h64
	v64h-64V448z M640,448h-64H640z M640,448h64v64h-64V448z M768,448h64v64h-64V448z M896,448h-64H896z M896,576h64v64h-64V576z
	 M512,576h64v64h-64V576z M576,512h64v64h-64V512z M704,512h64v64h-64V512z M768,576h64v64h-64V576z M640,576h64v64h-64V576z
	 M832,512h64v64h-64V512z M576,640h64H576z M704,640h64H704z"/>
</svg>
