<svg version="1.1" id="Layer_1" xmlns="http://www.w3.org/2000/svg" xmlns:xlink="http://www.w3.org/1999/xlink" x="0px" y="0px"
	 viewBox="0 0 1024 1024" style="enable-background:new 0 0 1024 1024;" xml:space="preserve">
<g>
	<path d="M966.9,482.6H896V336c0-44-25.5-105.5-56.6-136.6L696.6,56.6C665.5,25.5,604,0,560,0H80C36,0,0,36,0,80v864
		c0,44,36,80,80,80h736c44,0,80-36,80-80v-80.5h70.9c31.4,0,57.1-25.7,57.1-57.1V539.7C1024,508.3,998.3,482.6,966.9,482.6z
		 M640.1,92.6c4.4,3.1,8.2,6.2,11.3,9.3l142.8,142.8c3.1,3.1,6.2,6.9,9.3,11.3H640.1V92.6z M832,944c0,8.7-7.3,16-16,16H80
		c-8.7,0-16-7.3-16-16V80c0-8.7,7.3-16,16-16h480c4.8,0,10.2,0.6,16,1.7V320h254.3c1.1,5.8,1.7,11.2,1.7,16v146.6H230.2
		c-31.4,0-57.1,25.7-57.1,57.1v266.8c0,31.4,25.7,57.1,57.1,57.1H832V944z M684.6,755.7h-44l-14-45.9h-70.3l-14,45.9h-44l68-193.5
		h50L684.6,755.7z M321.7,597v-34h145.5v34h-52.3v158.7H374V597H321.7z M843.1,755.7l-46-74h-21.8v74h-40.9V563h56.2
		c26.2,0,45.6,4.8,58.1,14.3c12.6,9.5,18.9,24,18.9,43.4c0,11.3-3.1,21.4-9.4,30.3c-6.2,8.8-15.1,15.8-26.5,20.8
		c29,43.3,47.9,71.3,56.7,84H843.1z"/>
	<path d="M595,605c-1.6-5.4-2.8-9.8-3.5-12.9c-2.9,11.3-11.2,39.1-24.9,83.5h50.2C603.9,634,596.6,610.5,595,605z"/>
	<path d="M817,602.2c-6.3-3.9-16-5.8-29.2-5.8h-12.4v52.1h13.2c12.9,0,22.5-2.2,28.6-6.5c6.2-4.3,9.2-11.1,9.2-20.3
		C826.4,612.6,823.2,606.1,817,602.2z"/>
</g>
</svg>
