<?xml version="1.0" encoding="utf-8"?>
<svg version="1.1" xmlns="http://www.w3.org/2000/svg" width="1024" height="1024" viewBox="0 0 1024 1024">
<path d="M994.7,254.6V90H40.4v164.6h423.3l-0.4,188.6H310.6c-8,0-14.8,2.8-20.3,8.4s-8.4,12.4-8.4,20.3v478.6c0,8,2.8,14.8,8.4,20.3
	s12.4,8.4,20.3,8.4h402c8,0,14.8-2.8,20.3-8.4c5.6-5.6,8.4-12.4,8.4-20.3V605.9c0-8-2-16.8-6-26.3c-4-9.6-8.8-17.1-14.4-22.7
	l-93.3-93.3c-5.6-5.6-13.2-10.4-22.7-14.4s-18.3-6-26.3-6H543l0.4-188.6L994.7,254.6L994.7,254.6z M588.2,483.8
	c5.8,2,9.9,4.2,12.3,6.6L694,584c2.4,2.4,4.6,6.5,6.6,12.3H588.2L588.2,483.8L588.2,483.8z M558.3,626.2c5.6,5.6,12.4,8.4,20.3,8.4
	H703v306.3H320.2V481.5h229.7v124.4C549.9,613.9,552.7,620.6,558.3,626.2L558.3,626.2z"/>
</svg>
