<svg version="1.1" id="Layer_1" xmlns="http://www.w3.org/2000/svg" xmlns:xlink="http://www.w3.org/1999/xlink" x="0px" y="0px"
	 viewBox="0 0 1024 1024" style="enable-background:new 0 0 1024 1024;" xml:space="preserve">
<path d="M966.9,482.6H896V336c0-44-25.5-105.5-56.6-136.6L696.6,56.6C665.5,25.5,604,0,560,0H80C36,0,0,36,0,80v864
	c0,44,36,80,80,80h736c44,0,80-36,80-80v-80.5h70.9c31.4,0,57.1-25.7,57.1-57.1V539.7C1024,508.3,998.3,482.6,966.9,482.6z
	 M640.1,92.6c4.4,3.1,8.2,6.2,11.3,9.3l142.8,142.8c3.1,3.1,6.2,6.9,9.3,11.3H640.1V92.6z M832,944c0,8.7-7.3,16-16,16H80
	c-8.7,0-16-7.3-16-16V80c0-8.7,7.3-16,16-16h480c4.8,0,10.2,0.6,16,1.7V320h254.3c1.1,5.8,1.7,11.2,1.7,16v146.6H230.2
	c-31.4,0-57.1,25.7-57.1,57.1v266.8c0,31.4,25.7,57.1,57.1,57.1H832V944z M713,604.7l-49.7,151h-37.4l-46.4-151.2h-1.2
	c1.7,30.8,2.5,51.3,2.5,61.6v89.6h-36.5V563h55.6l45.6,147.4h0.8L694.7,563h55.6v192.7h-38.1v-91.2c0-4.3,0.1-9.3,0.2-14.9
	c0.1-5.6,0.7-20.6,1.8-44.8H713z M318.4,563h45.1l41.5,69.3l40.7-69.3h44l-60.5,95.6l65.1,97.2h-46.7l-44.8-72.9l-44.8,72.9h-43.8
	l63.9-99.4L318.4,563z M943.6,755.7h-119V563h40.9v159h78.2V755.7z"/>
</svg>
