<?xml version="1.0" encoding="utf-8"?>
<svg version="1.1" xmlns="http://www.w3.org/2000/svg" width="1024" height="1024" viewBox="0 0 1024 1024">
<path d="M839.4,199.4L696.6,56.6C665.5,25.5,604,0,560,0H80C36,0,0,36,0,80v864c0,44,36,80,80,80h736c44,0,80-36,80-80v-80.5
	l-64,0.1V944c0,8.7-7.3,16-16,16H80c-8.7,0-16-7.3-16-16V80c0-8.7,7.3-16,16-16h480c4.8,0,10.2,0.6,16,1.7V320h254.3
	c1.1,5.8,1.7,11.2,1.7,16v86.6l64-1.5V336C896,292,870.5,230.5,839.4,199.4z M640.1,256V92.6c4.4,3.1,8.2,6.2,11.3,9.3l142.8,142.8
	c3.1,3.1,6.2,6.9,9.3,11.3H640.1z M1009.9,624.4C908.5,683,814.8,737.1,714.6,795c-1.3-21-4-124.8-4-124.8s-211,3.8-283.7,3.8
	c0-33.8,0-65.7,0-104.1c70.2,0,284.2-3.2,284.2-3.2l0.6-66.5c0,0,0-29.4,0-54.8C813.1,506.2,907.7,563,1009.9,624.4z"/>
</svg>
