<?xml version="1.0" encoding="utf-8"?>
<svg version="1.1" xmlns="http://www.w3.org/2000/svg" width="1024" height="1024" viewBox="0 0 1024 1024">
<path d="M966.9,482.6H896V336c0-44-25.5-105.5-56.6-136.6L696.6,56.6C665.5,25.5,604,0,560,0H80C36,0,0,36,0,80v864
	c0,44,36,80,80,80h736c44,0,80-36,80-80v-80.5h70.9c31.4,0,57.1-25.7,57.1-57.1V539.7C1024,508.3,998.3,482.6,966.9,482.6z
	 M640.1,92.6c4.4,3.1,8.2,6.2,11.3,9.3l142.8,142.8c3.1,3.1,6.2,6.9,9.3,11.3H640.1V92.6z M832,944c0,8.7-7.3,16-16,16H80
	c-8.7,0-16-7.3-16-16V80c0-8.7,7.3-16,16-16h480c4.8,0,10.2,0.6,16,1.7V320h254.3c1.1,5.8,1.7,11.2,1.7,16v146.6H230.2
	c-31.4,0-57.1,25.7-57.1,57.1v266.8c0,31.4,25.7,57.1,57.1,57.1H832V944z M366.4,558.8h89.4c14.9,0,26.3,4.7,34.3,14.1
	c8,9.4,12,21,12,34.9c0,11.6-2.8,21.6-8.5,29.9c-3.8,5.6-9.3,9.9-16.7,13.2c11.1,3.4,19.3,9.2,24.5,17.5c5.2,8.3,7.9,18.7,7.9,31.2
	c0,10.2-1.9,19.4-5.6,27.5c-3.7,8.1-8.8,14.6-15.3,19.3c-4,3-10,5.1-18.1,6.4c-10.8,1.8-17.9,2.7-21.4,2.7h-82.4V558.8z
	 M414.6,636.1h20.8c7.4,0,12.6-1.6,15.5-4.9c2.9-3.3,4.4-8,4.4-14.2c0-5.7-1.5-10.2-4.4-13.4c-2.9-3.2-8-4.8-15.2-4.8h-21.1V636.1z
	 M414.6,713.4h24.3c8.2,0,14-1.9,17.4-5.6c3.4-3.7,5.1-8.7,5.1-15c0-5.8-1.7-10.5-5-14c-3.3-3.5-9.2-5.3-17.5-5.3h-24.2V713.4z
	 M566.3,558.8h47.8v196.9h-47.8V558.8z M678.7,558.8h44.6l58.2,108.9V558.8h45v196.9h-45l-57.9-108.1v108.1h-44.9V558.8z"/>
</svg>
