<?xml version="1.0" encoding="utf-8"?>
<svg version="1.1" xmlns="http://www.w3.org/2000/svg" width="1024" height="1024" viewBox="0 0 1024 1024">
<g>
	<path d="M395,602.2c-6.3-3.9-16-5.8-29.2-5.8h-12.4v52.1h13.2c12.9,0,22.5-2.2,28.6-6.5c6.2-4.3,9.2-11.1,9.2-20.3
		C404.4,612.6,401.3,606.1,395,602.2z"/>
	<path d="M880.7,603.3c-5.2-4.6-13.4-6.9-24.6-6.9h-18.6v57.2H851c12.6,0,22-2.5,28.2-7.4c6.2-5,9.4-12.2,9.4-21.7
		C888.6,614.9,885.9,607.9,880.7,603.3z"/>
	<path d="M966.9,482.6H896V336c0-44-25.5-105.5-56.6-136.6L696.6,56.6C665.5,25.5,604,0,560,0H80C36,0,0,36,0,80v864
		c0,44,36,80,80,80h736c44,0,80-36,80-80v-80.5h70.9c31.4,0,57.1-25.7,57.1-57.1V539.7C1024,508.3,998.3,482.6,966.9,482.6z
		 M640.1,92.6c4.4,3.1,8.2,6.2,11.3,9.3l142.8,142.8c3.1,3.1,6.2,6.9,9.3,11.3H640.1V92.6z M832,944c0,8.7-7.3,16-16,16H80
		c-8.7,0-16-7.3-16-16V80c0-8.7,7.3-16,16-16h480c4.8,0,10.2,0.6,16,1.7V320h254.3c1.1,5.8,1.7,11.2,1.7,16v146.6H230.2
		c-31.4,0-57.1,25.7-57.1,57.1v266.8c0,31.4,25.7,57.1,57.1,57.1H832V944z M685.2,604.7l-49.7,151h-37.4l-46.4-151.2h-1.2
		c1.7,30.8,2.5,51.3,2.5,61.6v89.6h-36.5V563h55.6l45.6,147.4h0.8L666.9,563h55.6v192.7h-38.1v-91.2c0-4.3,0.1-9.3,0.2-14.9
		c0.1-5.6,0.7-20.6,1.8-44.8H685.2z M466.5,755.7h-45.4l-46-74h-21.8v74h-40.9V563h56.2c26.2,0,45.6,4.8,58.1,14.3
		c12.6,9.5,18.9,24,18.9,43.4c0,11.3-3.1,21.4-9.4,30.3c-6.2,8.8-15.1,15.8-26.5,20.8C438.9,715.1,457.8,743,466.5,755.7z
		 M910.4,670.7c-13,11-31.4,16.5-55.3,16.5h-17.5v68.6h-40.9V563h61.6c23.4,0,41.2,5,53.3,15.1c12.2,10.1,18.3,25.1,18.3,45
		C929.8,643.8,923.3,659.7,910.4,670.7z"/>
</g>
</svg>
