<svg version="1.1" id="Layer_1" xmlns="http://www.w3.org/2000/svg" xmlns:xlink="http://www.w3.org/1999/xlink" x="0px" y="0px"
	 viewBox="0 0 1024 1024" style="enable-background:new 0 0 1024 1024;" xml:space="preserve">
<g>
	<path d="M759.5,634.1c5-3.4,7.4-9.1,7.4-17c0-7.4-2.7-12.7-8.1-15.9c-5.4-3.2-14-4.8-25.6-4.8h-21.5v42.8h23.7
		C746.5,639.3,754.5,637.6,759.5,634.1z"/>
	<path d="M966.9,482.6H896V336c0-44-25.5-105.5-56.6-136.6L696.6,56.6C665.5,25.5,604,0,560,0H80C36,0,0,36,0,80v864
		c0,44,36,80,80,80h736c44,0,80-36,80-80v-80.5h70.9c31.4,0,57.1-25.7,57.1-57.1V539.7C1024,508.3,998.3,482.6,966.9,482.6z
		 M640.1,92.6c4.4,3.1,8.2,6.2,11.3,9.3l142.8,142.8c3.1,3.1,6.2,6.9,9.3,11.3H640.1V92.6z M832,482.6H230.2
		c-31.4,0-57.1,25.7-57.1,57.1v266.8c0,31.4,25.7,57.1,57.1,57.1H832V944c0,8.7-7.3,16-16,16H80c-8.7,0-16-7.3-16-16V80
		c0-8.7,7.3-16,16-16h480c4.8,0,10.2,0.6,16,1.7V320h254.3c1.1,5.8,1.7,11.2,1.7,16V482.6z M805.6,670c5.4,7.5,8.1,17.4,8.1,29.8
		c0,17.6-6.4,31.3-19.1,41.1c-12.7,9.8-29.9,14.8-51.7,14.8h-72.1V563h60c27.3,0,47.2,3.9,59.5,11.7c12.3,7.8,18.5,20.2,18.5,37.1
		c0,11.5-2.7,21-8.1,28.3c-5.4,7.4-12.6,11.8-21.6,13.3v1.3C791.4,657.4,800.2,662.5,805.6,670z M625.7,638.8v33.5h-65.3V722h70.1
		v33.8h-111V563h111v33.5h-70.1v42.3H625.7z M495.3,563l-49,192.7h-46.5l-26.1-101.2c-1-3.6-2.6-11.1-4.9-22.3
		c-2.3-11.3-3.7-18.9-4-22.7c-0.5,4.7-1.8,12.4-4,22.9c-2.1,10.5-3.7,18-4.9,22.5l-26,101h-46.4L234.3,563h40.2l24.7,105.2
		c4.3,19.4,7.4,36.3,9.4,50.5c0.5-5,1.7-12.8,3.6-23.3c1.9-10.5,3.7-18.7,5.3-24.5l28.1-108h38.6l28.1,108
		c1.2,4.8,2.8,12.2,4.6,22.1c1.8,9.9,3.3,18.5,4.2,25.6c0.9-6.9,2.3-15.4,4.2-25.6c1.9-10.2,3.7-18.5,5.3-24.9L455.1,563H495.3z
		 M965.9,670.7c-13,11-31.4,16.5-55.3,16.5h-17.5v68.6h-40.9V563h61.6c23.4,0,41.2,5,53.3,15.1c12.2,10.1,18.3,25.1,18.3,45
		C985.4,643.8,978.9,659.7,965.9,670.7z"/>
	<path d="M737,671.7h-25.3V722h26.6c11.2,0,19.6-2.2,24.9-6.5c5.4-4.3,8-10.9,8-19.8C771.3,679.7,759.8,671.7,737,671.7z"/>
	<path d="M936.3,603.3c-5.2-4.6-13.4-6.9-24.6-6.9h-18.6v57.2h13.4c12.6,0,22-2.5,28.2-7.4c6.2-5,9.4-12.2,9.4-21.7
		C944.1,614.9,941.5,607.9,936.3,603.3z"/>
</g>
</svg>
