<?xml version="1.0" encoding="utf-8"?>
<svg version="1.1" xmlns="http://www.w3.org/2000/svg" width="1024" height="1024" viewBox="0 0 1024 1024">
<g>
	<path d="M701.4,634.1c5-3.4,7.4-9.1,7.4-17c0-7.4-2.7-12.7-8.1-15.9c-5.4-3.2-14-4.8-25.6-4.8h-21.5v42.8h23.7
		C688.4,639.3,696.4,637.6,701.4,634.1z"/>
	<path d="M678.9,671.7h-25.3V722h26.6c11.2,0,19.6-2.2,24.9-6.5c5.4-4.3,8-10.9,8-19.8C713.2,679.7,701.8,671.7,678.9,671.7z"/>
	<path d="M966.9,482.6H896V336c0-44-25.5-105.5-56.6-136.6L696.6,56.6C665.5,25.5,604,0,560,0H80C36,0,0,36,0,80v864
		c0,44,36,80,80,80h736c44,0,80-36,80-80v-80.5h70.9c31.4,0,57.1-25.7,57.1-57.1V539.7C1024,508.3,998.3,482.6,966.9,482.6z
		 M640.1,92.6c4.4,3.1,8.2,6.2,11.3,9.3l142.8,142.8c3.1,3.1,6.2,6.9,9.3,11.3H640.1V92.6z M832,944c0,8.7-7.3,16-16,16H80
		c-8.7,0-16-7.3-16-16V80c0-8.7,7.3-16,16-16h480c4.8,0,10.2,0.6,16,1.7V320h254.3c1.1,5.8,1.7,11.2,1.7,16v146.6H230.2
		c-31.4,0-57.1,25.7-57.1,57.1v266.8c0,31.4,25.7,57.1,57.1,57.1H832V944z M747.5,670c5.4,7.5,8.1,17.4,8.1,29.8
		c0,17.6-6.4,31.3-19.1,41.1c-12.7,9.8-29.9,14.8-51.7,14.8h-72.1V563h60c27.3,0,47.2,3.9,59.5,11.7c12.3,7.8,18.5,20.2,18.5,37.1
		c0,11.5-2.7,21-8.1,28.3c-5.4,7.4-12.6,11.8-21.6,13.3v1.3C733.3,657.4,742.1,662.5,747.5,670z M581.7,638.8v33.5h-65.3V722h70.1
		v33.8h-111V563h111v33.5h-70.1v42.3H581.7z M465.3,563l-49,192.7h-46.5l-26.1-101.2c-1-3.6-2.6-11.1-4.9-22.3
		c-2.3-11.3-3.7-18.9-4-22.7c-0.5,4.7-1.8,12.4-4,22.9c-2.1,10.5-3.7,18-4.9,22.5l-26,101h-46.4L204.3,563h40.2l24.7,105.2
		c4.3,19.4,7.4,36.3,9.4,50.5c0.5-5,1.7-12.8,3.6-23.3c1.9-10.5,3.7-18.7,5.3-24.5l28.1-108h38.6l28.1,108
		c1.2,4.8,2.8,12.2,4.6,22.1c1.8,9.9,3.3,18.5,4.2,25.6c0.9-6.9,2.3-15.4,4.2-25.6c1.9-10.2,3.7-18.5,5.3-24.9L425.1,563H465.3z
		 M986.2,755.7h-38.1v-91.2c0-4.3,0.1-9.3,0.2-14.9c0.1-5.6,0.7-20.6,1.8-44.8h-1.2l-49.7,151h-37.4l-46.4-151.2h-1.2
		c1.7,30.8,2.5,51.3,2.5,61.6v89.6h-36.5V563h55.6l45.6,147.4h0.8L930.5,563h55.6V755.7z"/>
</g>
</svg>
