<svg version="1.1" id="Layer_1" xmlns="http://www.w3.org/2000/svg" xmlns:xlink="http://www.w3.org/1999/xlink" x="0px" y="0px"
	 viewBox="0 0 1024 1024" style="enable-background:new 0 0 1024 1024;" xml:space="preserve">
<style type="text/css">
	.st0{fill:#FCFCFC;}
</style>
<path d="M966.9,482.6H896V336c0-44-25.5-105.5-56.6-136.6l0,0L696.6,56.6C665.5,25.5,604,0,560,0H80C36,0,0,36,0,80v864
	c0,44,36,80,80,80h736c44,0,80-36,80-80v-80.5h70.9c31.4,0,57.1-25.7,57.1-57.1V539.7C1024,508.3,998.3,482.6,966.9,482.6z
	 M640.1,92.6c4.4,3.1,8.2,6.2,11.3,9.3l142.8,142.8c3.1,3.1,6.2,6.9,9.3,11.3H640.1V92.6z M832,944c0,8.7-7.3,16-16,16H80
	c-8.7,0-16-7.3-16-16V80c0-8.7,7.3-16,16-16h480c4.8,0,10.2,0.6,16,1.7V320h254.3c1.1,5.8,1.7,11.2,1.7,16v146.6H230.2
	c-31.4,0-57.1,25.7-57.1,57.1v266.8c0,31.4,25.7,57.1,57.1,57.1H832V944z"/>
<g>
	<path class="st0" d="M308.6,563h60c27.3,0,47.2,3.9,59.5,11.7c12.3,7.8,18.5,20.2,18.5,37.1c0,11.5-2.7,21-8.1,28.3
		c-5.4,7.4-12.6,11.8-21.6,13.3v1.3c12.2,2.7,21,7.8,26.4,15.3c5.4,7.5,8.1,17.4,8.1,29.8c0,17.6-6.4,31.3-19.1,41.1
		c-12.7,9.8-29.9,14.8-51.7,14.8h-72.1V563z M349.4,639.3h23.7c11.1,0,19.1-1.7,24.1-5.1c5-3.4,7.4-9.1,7.4-17
		c0-7.4-2.7-12.7-8.1-15.9c-5.4-3.2-14-4.8-25.6-4.8h-21.5V639.3z M349.4,671.7V722h26.6c11.2,0,19.6-2.2,24.9-6.5
		c5.4-4.3,8-10.9,8-19.8c0-16-11.4-24-34.3-24H349.4z"/>
	<path class="st0" d="M597.2,755.7l-46.4-151.2h-1.2c1.7,30.8,2.5,51.3,2.5,61.6v89.6h-36.5V563h55.6l45.6,147.4h0.8L666,563h55.6
		v192.7h-38.1v-91.2c0-4.3,0.1-9.3,0.2-14.9c0.1-5.6,0.7-20.6,1.8-44.8h-1.2l-49.7,151H597.2z"/>
	<path class="st0" d="M929,623.1c0,20.7-6.5,36.6-19.4,47.6c-13,11-31.4,16.5-55.3,16.5h-17.5v68.6h-40.9V563h61.6
		c23.4,0,41.2,5,53.3,15.1C922.9,588.1,929,603.1,929,623.1z M836.7,653.7h13.4c12.6,0,22-2.5,28.2-7.4c6.2-5,9.4-12.2,9.4-21.7
		c0-9.6-2.6-16.7-7.8-21.2c-5.2-4.6-13.4-6.9-24.6-6.9h-18.6V653.7z"/>
</g>
</svg>
