<?xml version="1.0" encoding="utf-8"?>
<!-- Generator: Adobe Illustrator 20.1.0, SVG Export Plug-In . SVG Version: 6.00 Build 0)  -->
<svg version="1.1" id="Layer_1" xmlns="http://www.w3.org/2000/svg" xmlns:xlink="http://www.w3.org/1999/xlink" x="0px" y="0px"
	 viewBox="0 0 1024 1024" style="enable-background:new 0 0 1024 1024;" xml:space="preserve">
<path d="M966.9,482.6H896V336c0-44-25.5-105.5-56.6-136.6l0,0L696.6,56.6C665.5,25.5,604,0,560,0H80C36,0,0,36,0,80v864
	c0,44,36,80,80,80h736c44,0,80-36,80-80v-80.5h70.9c31.4,0,57.1-25.7,57.1-57.1V539.7C1024,508.3,998.3,482.6,966.9,482.6z
	 M640.1,92.6c4.4,3.1,8.2,6.2,11.3,9.3l142.8,142.8c3.1,3.1,6.2,6.9,9.3,11.3H640.1C640.1,256,640.1,92.6,640.1,92.6z M832,944
	c0,8.7-7.3,16-16,16H80c-8.7,0-16-7.3-16-16V80c0-8.7,7.3-16,16-16h480c4.8,0,10.2,0.6,16,1.7V320h254.3c1.1,5.8,1.7,11.2,1.7,16
	v146.6H230.2c-31.4,0-57.1,25.7-57.1,57.1v266.8c0,31.4,25.7,57.1,57.1,57.1H832V944z M448.9,755.5H338.3v-192h110.6v33.4H379V639
	h65v33.4h-65v49.5h69.9V755.5z M633.4,755.5l-13.9-45.7h-70l-13.9,45.7h-43.9l67.8-192.8h49.8l68,192.8H633.4L633.4,755.5z
	 M609.8,675.7c-12.9-41.4-20.1-64.8-21.7-70.3c-1.6-5.4-2.8-9.7-3.5-12.9c-2.9,11.2-11.2,38.9-24.8,83.1h50V675.7z M769.1,681.9
	v73.7h-40.7v-192h56c26.1,0,45.4,4.8,57.9,14.3s18.8,23.9,18.8,43.3c0,11.3-3.1,21.3-9.3,30.1s-15,15.7-26.4,20.7
	c28.9,43.2,47.7,71.1,56.5,83.7h-45.2L790.9,682L769.1,681.9L769.1,681.9z M769.1,648.8h13.1c12.9,0,22.4-2.1,28.5-6.4
	s9.2-11,9.2-20.2c0-9.1-3.1-15.6-9.4-19.4c-6.3-3.9-16-5.8-29.1-5.8h-12.3V648.8L769.1,648.8z"/>
</svg>
