<svg version="1.1" id="Layer_1" xmlns="http://www.w3.org/2000/svg" xmlns:xlink="http://www.w3.org/1999/xlink" x="0px" y="0px"
	 viewBox="0 0 1024 1024" style="enable-background:new 0 0 1024 1024;" xml:space="preserve">
<g>
	<path d="M473,605c-1.6-5.4-2.8-9.8-3.5-12.9c-2.9,11.3-11.2,39.1-24.9,83.5h50.2C481.9,634,474.7,610.5,473,605z"/>
	<path d="M966.9,482.6H896V336c0-44-25.5-105.5-56.6-136.6L696.6,56.6C665.5,25.5,604,0,560,0H80C36,0,0,36,0,80v864
		c0,44,36,80,80,80h736c44,0,80-36,80-80v-80.5h70.9c31.4,0,57.1-25.7,57.1-57.1V539.7C1024,508.3,998.3,482.6,966.9,482.6z
		 M640.1,92.6c4.4,3.1,8.2,6.2,11.3,9.3l142.8,142.8c3.1,3.1,6.2,6.9,9.3,11.3H640.1V92.6z M832,944c0,8.7-7.3,16-16,16H80
		c-8.7,0-16-7.3-16-16V80c0-8.7,7.3-16,16-16h480c4.8,0,10.2,0.6,16,1.7V320h254.3c1.1,5.8,1.7,11.2,1.7,16v146.6H230.2
		c-31.4,0-57.1,25.7-57.1,57.1v266.8c0,31.4,25.7,57.1,57.1,57.1H832V944z M763.7,563l-65.5,192.7h-44.6L588.3,563h41.3l36.3,114.7
		c2,6.8,4.1,14.7,6.3,23.7c2.2,9,3.5,15.3,4,18.8c1-8.1,4.3-22.2,9.9-42.5L722.5,563H763.7z M562.6,755.7h-44l-14-45.9h-70.3
		l-14,45.9h-44l68-193.5h50L562.6,755.7z M326.4,563v180.4c0,22.5-5.1,39.6-15.4,51.4c-10.3,11.8-25.5,17.7-45.6,17.7
		c-9.2,0-17.3-1-24.1-2.9v-34c7,1.8,13.4,2.6,19.2,2.6c9,0,15.4-2.8,19.2-8.4c3.9-5.6,5.8-14.3,5.8-26.2V563H326.4z M931.6,755.7
		l-14-45.9h-70.3l-14,45.9h-44l68-193.5h50l68.3,193.5H931.6z"/>
	<path d="M882.6,592.1c-2.9,11.3-11.2,39.1-24.9,83.5h50.2C895,634,887.7,610.5,886.1,605C884.5,599.6,883.3,595.3,882.6,592.1z"/>
</g>
</svg>
