<svg version="1.1" id="Layer_1" xmlns="http://www.w3.org/2000/svg" xmlns:xlink="http://www.w3.org/1999/xlink" x="0px" y="0px"
	 viewBox="0 0 1024 1024" style="enable-background:new 0 0 1024 1024;" xml:space="preserve">
<style type="text/css">
	.st0{fill:#FCFCFC;}
</style>
<path d="M966.9,482.6H896V336c0-44-25.5-105.5-56.6-136.6L696.6,56.6C665.5,25.5,604,0,560,0H80C36,0,0,36,0,80v864
	c0,44,36,80,80,80h736c44,0,80-36,80-80v-80.5h70.9c31.4,0,57.1-25.7,57.1-57.1V539.7C1024,508.3,998.3,482.6,966.9,482.6z
	 M640.1,92.6c4.4,3.1,8.2,6.2,11.3,9.3l142.8,142.8c3.1,3.1,6.2,6.9,9.3,11.3H640.1V92.6z M832,482.6H230.2
	c-31.4,0-57.1,25.7-57.1,57.1v266.8c0,31.4,25.7,57.1,57.1,57.1H832V944c0,8.7-7.3,16-16,16H80c-8.7,0-16-7.3-16-16V80
	c0-8.7,7.3-16,16-16h480c4.8,0,10.2,0.6,16,1.7V320h254.3c1.1,5.8,1.7,11.2,1.7,16V482.6z"/>
<g>
	<path class="st0" d="M475.5,657.5c0,31.7-9,56-27.1,72.9c-18.1,16.9-44.1,25.3-78.2,25.3h-54.6V563h60.5c31.5,0,55.9,8.3,73.3,24.9
		S475.5,627.7,475.5,657.5z M433,658.5c0-41.4-18.3-62.1-54.8-62.1h-21.8V722H374C413.3,722,433,700.8,433,658.5z"/>
	<path class="st0" d="M716,659.1c0,31.9-7.9,56.4-23.7,73.6s-38.5,25.7-68,25.7s-52.2-8.6-68-25.7s-23.7-41.7-23.7-73.8
		c0-32.1,7.9-56.6,23.8-73.5c15.9-16.9,38.6-25.4,68.2-25.4c29.6,0,52.3,8.5,68,25.6C708.2,602.6,716,627.1,716,659.1z M575.3,659.1
		c0,21.5,4.1,37.8,12.3,48.6c8.2,10.9,20.4,16.3,36.7,16.3c32.6,0,48.9-21.7,48.9-65c0-43.4-16.2-65.1-48.6-65.1
		c-16.3,0-28.5,5.5-36.8,16.4C579.5,621.3,575.3,637.5,575.3,659.1z"/>
	<path class="st0" d="M863.5,594.2c-15.4,0-27.3,5.8-35.7,17.3c-8.4,11.6-12.7,27.7-12.7,48.3c0,43,16.1,64.5,48.4,64.5
		c13.5,0,29.9-3.4,49.2-10.2v34.3c-15.8,6.6-33.5,9.9-53,9.9c-28,0-49.5-8.5-64.3-25.5c-14.9-17-22.3-41.4-22.3-73.2
		c0-20,3.6-37.6,10.9-52.7c7.3-15.1,17.8-26.6,31.4-34.7c13.7-8,29.7-12.1,48.1-12.1c18.7,0,37.5,4.5,56.4,13.6L906.7,607
		c-7.2-3.4-14.5-6.4-21.8-9C877.7,595.5,870.5,594.2,863.5,594.2z"/>
</g>
</svg>
