<svg version="1.1" id="Layer_1" xmlns="http://www.w3.org/2000/svg" xmlns:xlink="http://www.w3.org/1999/xlink" x="0px" y="0px"
	 viewBox="0 0 1024 1024" style="enable-background:new 0 0 1024 1024;" xml:space="preserve">
<g>
	<path d="M623.8,593.9c-16.3,0-28.5,5.5-36.8,16.4c-8.3,10.9-12.4,27.2-12.4,48.7c0,21.5,4.1,37.8,12.3,48.6
		c8.2,10.9,20.4,16.3,36.7,16.3c32.6,0,48.9-21.7,48.9-65C672.4,615.6,656.2,593.9,623.8,593.9z"/>
	<path d="M966.9,482.6H896V336c0-44-25.5-105.5-56.6-136.6L696.6,56.6C665.5,25.5,604,0,560,0H80C36,0,0,36,0,80v864
		c0,44,36,80,80,80h736c44,0,80-36,80-80v-80.5h70.9c31.4,0,57.1-25.7,57.1-57.1V539.7C1024,508.3,998.3,482.6,966.9,482.6z
		 M640.1,92.6c4.4,3.1,8.2,6.2,11.3,9.3l142.8,142.8c3.1,3.1,6.2,6.9,9.3,11.3H640.1V92.6z M832,944c0,8.7-7.3,16-16,16H80
		c-8.7,0-16-7.3-16-16V80c0-8.7,7.3-16,16-16h480c4.8,0,10.2,0.6,16,1.7V320h254.3c1.1,5.8,1.7,11.2,1.7,16v146.6H230.2
		c-31.4,0-57.1,25.7-57.1,57.1v266.8c0,31.4,25.7,57.1,57.1,57.1H832V944z M715.3,659.1c0,31.9-7.9,56.4-23.7,73.6
		s-38.5,25.7-68,25.7s-52.2-8.6-68-25.7s-23.7-41.7-23.7-73.8c0-32.1,7.9-56.6,23.8-73.5c15.9-16.9,38.6-25.4,68.2-25.4
		c29.6,0,52.3,8.5,68,25.6C707.4,602.6,715.3,627.1,715.3,659.1z M454.3,694.1c-2.1-2.9-5.2-5.8-9.3-8.5c-4.1-2.7-12.4-7.1-25-13.1
		c-11.8-5.5-20.6-10.9-26.5-16c-5.9-5.1-10.6-11-14.1-17.8c-3.5-6.8-5.3-14.7-5.3-23.7c0-17.1,5.8-30.5,17.3-40.2
		c11.6-9.8,27.5-14.6,47.9-14.6c10,0,19.6,1.2,28.7,3.6c9.1,2.4,18.6,5.7,28.5,10l-13.2,31.8c-10.3-4.2-18.8-7.2-25.5-8.8
		c-6.7-1.7-13.3-2.5-19.8-2.5c-7.7,0-13.7,1.8-17.8,5.4c-4.1,3.6-6.2,8.3-6.2,14.1c0,3.6,0.8,6.7,2.5,9.4c1.7,2.7,4.3,5.3,8,7.8
		c3.6,2.5,12.3,7,25.9,13.5c18,8.6,30.4,17.2,37,25.9c6.7,8.7,10,19.3,10,31.8c0,17.4-6.3,31.1-18.8,41.1c-12.5,10-30,15-52.3,15
		c-20.6,0-38.8-3.9-54.6-11.6v-38c13,5.8,24,9.9,33,12.3c9,2.4,17.2,3.6,24.7,3.6c9,0,15.8-1.7,20.6-5.1c4.8-3.4,7.2-8.5,7.2-15.3
		C457.5,700.4,456.4,697,454.3,694.1z M327.4,563v180.4c0,22.5-5.1,39.6-15.4,51.4c-10.3,11.8-25.5,17.7-45.6,17.7
		c-9.2,0-17.3-1-24.1-2.9v-34c7,1.8,13.4,2.6,19.2,2.6c9,0,15.4-2.8,19.2-8.4c3.9-5.6,5.8-14.3,5.8-26.2V563H327.4z M934,755.7
		h-51.9l-83.8-145.8H797c1.7,25.8,2.5,44.1,2.5,55.1v90.7H763V563h51.5l83.7,144.4h0.9c-1.3-25-2-42.8-2-53.1V563H934V755.7z"/>
</g>
</svg>
