<svg version="1.1" id="Layer_1" xmlns="http://www.w3.org/2000/svg" xmlns:xlink="http://www.w3.org/1999/xlink" x="0px" y="0px"
	 viewBox="0 0 1024 1024" style="enable-background:new 0 0 1024 1024;" xml:space="preserve">
<g>
	<path d="M966.9,482.6H896V336c0-44-25.5-105.5-56.6-136.6L696.6,56.6C665.5,25.5,604,0,560,0H80C36,0,0,36,0,80v864
		c0,44,36,80,80,80h736c44,0,80-36,80-80v-80.5h70.9c31.4,0,57.1-25.7,57.1-57.1V539.7C1024,508.3,998.3,482.6,966.9,482.6z
		 M640.1,92.6c4.4,3.1,8.2,6.2,11.3,9.3l142.8,142.8c3.1,3.1,6.2,6.9,9.3,11.3H640.1V92.6z M832,944c0,8.7-7.3,16-16,16H80
		c-8.7,0-16-7.3-16-16V80c0-8.7,7.3-16,16-16h480c4.8,0,10.2,0.6,16,1.7V320h254.3c1.1,5.8,1.7,11.2,1.7,16v146.6H230.2
		c-31.4,0-57.1,25.7-57.1,57.1v266.8c0,31.4,25.7,57.1,57.1,57.1H832V944z M733.4,623.1c0,20.7-6.5,36.6-19.4,47.6
		c-13,11-31.4,16.5-55.3,16.5h-17.5v68.6h-40.9V563h61.6c23.4,0,41.2,5,53.3,15.1C727.4,588.1,733.4,603.1,733.4,623.1z
		 M488.8,604.7l-49.7,151h-37.4l-46.4-151.2h-1.2c1.7,30.8,2.5,51.3,2.5,61.6v89.6h-36.5V563h55.6l45.6,147.4h0.8L470.5,563h55.6
		v192.7H488v-91.2c0-4.3,0.1-9.3,0.2-14.9c0.1-5.6,0.7-20.6,1.8-44.8H488.8z M894.7,742.8c-13.4,10.3-32.7,15.5-57.6,15.5
		c-20.9,0-39.5-3.5-55.6-10.4v-34.7c7.5,3.8,15.7,6.9,24.7,9.2s17.8,3.6,26.6,3.6c13.4,0,23.4-2.3,29.8-6.9c6.4-4.6,9.6-11.9,9.6-22
		c0-9.1-3.7-15.5-11.1-19.2c-7.4-3.8-19.2-5.7-35.3-5.7h-14.6V641h14.9c14.9,0,25.9-2,32.8-5.9c6.9-3.9,10.3-10.6,10.3-20.1
		c0-14.6-9.1-21.9-27.4-21.9c-6.3,0-12.8,1.1-19.3,3.2c-6.5,2.1-13.8,5.8-21.8,10.9l-18.9-28.1c17.6-12.7,38.5-19,62.9-19
		c20,0,35.7,4,47.3,12.1c11.6,8.1,17.3,19.3,17.3,33.8c0,12-3.6,22.3-10.9,30.7c-7.3,8.4-17.5,14.2-30.7,17.4v0.8
		c15.6,1.9,27.3,6.7,35.3,14.2c8,7.5,12,17.6,12,30.4C914.9,718.1,908.2,732.5,894.7,742.8z"/>
	<path d="M684.3,603.3c-5.2-4.6-13.4-6.9-24.6-6.9h-18.6v57.2h13.4c12.6,0,22-2.5,28.2-7.4c6.2-5,9.4-12.2,9.4-21.7
		C692.2,614.9,689.6,607.9,684.3,603.3z"/>
</g>
</svg>
