<svg version="1.1" id="Layer_1" xmlns="http://www.w3.org/2000/svg" xmlns:xlink="http://www.w3.org/1999/xlink" x="0px" y="0px"
	 viewBox="0 0 1024 1024" style="enable-background:new 0 0 1024 1024;" xml:space="preserve">
<g>
	<path d="M659.7,605c-1.6-5.4-2.8-9.8-3.5-12.9c-2.9,11.3-11.2,39.1-24.9,83.5h50.2C668.6,634,661.3,610.5,659.7,605z"/>
	<path d="M966.9,482.6H896V336c0-44-25.5-105.5-56.6-136.6L696.6,56.6C665.5,25.5,604,0,560,0H80C36,0,0,36,0,80v864
		c0,44,36,80,80,80h736c44,0,80-36,80-80v-80.5h70.9c31.4,0,57.1-25.7,57.1-57.1V539.7C1024,508.3,998.3,482.6,966.9,482.6z
		 M640.1,92.6c4.4,3.1,8.2,6.2,11.3,9.3l142.8,142.8c3.1,3.1,6.2,6.9,9.3,11.3H640.1V92.6z M832,944c0,8.7-7.3,16-16,16H80
		c-8.7,0-16-7.3-16-16V80c0-8.7,7.3-16,16-16h480c4.8,0,10.2,0.6,16,1.7V320h254.3c1.1,5.8,1.7,11.2,1.7,16v146.6H230.2
		c-31.4,0-57.1,25.7-57.1,57.1v266.8c0,31.4,25.7,57.1,57.1,57.1H832V944z M749.3,755.7h-44l-14-45.9H621l-14,45.9h-44l68-193.5h50
		L749.3,755.7z M537.3,563l-49,192.7h-46.5l-26.1-101.2c-1-3.6-2.6-11.1-4.9-22.3c-2.3-11.3-3.7-18.9-4-22.7
		c-0.5,4.7-1.8,12.4-4,22.9c-2.1,10.5-3.7,18-4.9,22.5l-26,101h-46.4L276.3,563h40.2l24.7,105.2c4.3,19.4,7.4,36.3,9.4,50.5
		c0.5-5,1.7-12.8,3.6-23.3c1.9-10.5,3.7-18.7,5.3-24.5l28.1-108h38.6l28.1,108c1.2,4.8,2.8,12.2,4.6,22.1c1.8,9.9,3.3,18.5,4.2,25.6
		c0.9-6.9,2.3-15.4,4.2-25.6c1.9-10.2,3.7-18.5,5.3-24.9L497.1,563H537.3z M884.9,755.7h-44.6L774.9,563h41.3l36.3,114.7
		c2,6.8,4.1,14.7,6.3,23.7c2.2,9,3.5,15.3,4,18.8c1-8.1,4.3-22.2,9.9-42.5L909.1,563h41.3L884.9,755.7z"/>
</g>
</svg>
