<svg version="1.1" id="Layer_1" xmlns="http://www.w3.org/2000/svg" xmlns:xlink="http://www.w3.org/1999/xlink" x="0px" y="0px"
	 viewBox="0 0 1024 1024" style="enable-background:new 0 0 1024 1024;" xml:space="preserve">
<g>
	<path d="M356.4,722H374c39.3,0,59-21.2,59-63.5c0-41.4-18.3-62.1-54.8-62.1h-21.8V722z"/>
	<path d="M624.6,593.9c-16.3,0-28.5,5.5-36.8,16.4c-8.3,11-12.5,27.2-12.5,48.8c0,21.5,4.1,37.8,12.3,48.6
		c8.2,10.9,20.4,16.3,36.7,16.3c32.6,0,48.9-21.7,48.9-65C673.2,615.6,657,593.9,624.6,593.9z"/>
	<path d="M966.9,482.6H896V336c0-44-25.5-105.5-56.6-136.6L696.6,56.6C665.5,25.5,604,0,560,0H80C36,0,0,36,0,80v864
		c0,44,36,80,80,80h736c44,0,80-36,80-80v-80.5h70.9c31.4,0,57.1-25.7,57.1-57.1V539.7C1024,508.3,998.3,482.6,966.9,482.6z
		 M640.1,92.6c4.4,3.1,8.2,6.2,11.3,9.3l142.8,142.8c3.1,3.1,6.2,6.9,9.3,11.3H640.1V92.6z M832,944c0,8.7-7.3,16-16,16H80
		c-8.7,0-16-7.3-16-16V80c0-8.7,7.3-16,16-16h480c4.8,0,10.2,0.6,16,1.7V320h254.3c1.1,5.8,1.7,11.2,1.7,16v146.6H230.2
		c-31.4,0-57.1,25.7-57.1,57.1v266.8c0,31.4,25.7,57.1,57.1,57.1H832V944z M716,659.1c0,31.9-7.9,56.4-23.7,73.6s-38.5,25.7-68,25.7
		s-52.2-8.6-68-25.7s-23.7-41.7-23.7-73.8s7.9-56.6,23.8-73.5c15.9-16.9,38.6-25.4,68.2-25.4c29.6,0,52.3,8.5,68,25.6
		C708.2,602.6,716,627.1,716,659.1z M475.5,657.5c0,31.7-9,56-27.1,72.9c-18.1,16.9-44.1,25.3-78.2,25.3h-54.6V563h60.5
		c31.5,0,55.9,8.3,73.3,24.9S475.5,627.7,475.5,657.5z M863.5,724.3c13.5,0,29.9-3.4,49.2-10.2v34.3c-15.8,6.6-33.5,9.9-53,9.9
		c-28,0-49.5-8.5-64.3-25.5c-14.9-17-22.3-41.4-22.3-73.2c0-20,3.6-37.6,10.9-52.7c7.3-15.1,17.8-26.6,31.4-34.7
		c13.7-8,29.7-12.1,48.1-12.1c18.7,0,37.5,4.5,56.4,13.6L906.7,607c-7.2-3.4-14.5-6.4-21.8-9c-7.2-2.5-14.4-3.8-21.4-3.8
		c-15.4,0-27.3,5.8-35.7,17.3c-8.4,11.6-12.7,27.7-12.7,48.3C815.1,702.8,831.2,724.3,863.5,724.3z"/>
</g>
</svg>
