<?xml version="1.0" encoding="utf-8"?>
<svg version="1.1" xmlns="http://www.w3.org/2000/svg" width="1024" height="1024" viewBox="0 0 1024 1024">
<g>
	<path d="M396.6,603.3c-5.2-4.6-13.4-6.9-24.6-6.9h-18.6v57.2h13.4c12.6,0,22-2.5,28.2-7.4c6.2-5,9.4-12.2,9.4-21.7
		C404.4,614.9,401.8,607.9,396.6,603.3z"/>
	<path d="M966.9,482.6H896V336c0-44-25.5-105.5-56.6-136.6L696.6,56.6C665.5,25.5,604,0,560,0H80C36,0,0,36,0,80v864
		c0,44,36,80,80,80h736c44,0,80-36,80-80v-80.5h70.9c31.4,0,57.1-25.7,57.1-57.1V539.7C1024,508.3,998.3,482.6,966.9,482.6z
		 M640.1,92.6c4.4,3.1,8.2,6.2,11.3,9.3l142.8,142.8c3.1,3.1,6.2,6.9,9.3,11.3H640.1V92.6z M832,944c0,8.7-7.3,16-16,16H80
		c-8.7,0-16-7.3-16-16V80c0-8.7,7.3-16,16-16h480c4.8,0,10.2,0.6,16,1.7V320h254.3c1.1,5.8,1.7,11.2,1.7,16v146.6H230.2
		c-31.4,0-57.1,25.7-57.1,57.1v266.8c0,31.4,25.7,57.1,57.1,57.1H832V944z M544.3,665v90.7h-36.5V563h51.5L643,707.3h0.9
		c-1.3-25-2-42.8-2-53.1V563h36.8v192.7h-51.9l-83.8-145.8h-1.2C543.4,635.6,544.3,654,544.3,665z M445.7,623.1
		c0,20.7-6.5,36.6-19.4,47.6c-13,11-31.4,16.5-55.3,16.5h-17.5v68.6h-40.9V563h61.6c23.4,0,41.2,5,53.3,15.1
		C439.6,588.1,445.7,603.1,445.7,623.1z M902.5,747.4c-12.4,4-24.1,6.9-35,8.5c-10.9,1.6-22.1,2.4-33.6,2.4
		c-29.1,0-51.3-8.5-66.6-25.6c-15.3-17.1-23-41.6-23-73.6c0-31.1,8.9-55.4,26.7-72.8c17.8-17.4,42.5-26.1,74-26.1
		c19.8,0,38.8,4,57.2,11.9l-13.6,32.7c-14.1-7-28.7-10.5-43.9-10.5c-17.7,0-31.8,5.9-42.5,17.8c-10.6,11.9-16,27.8-16,47.9
		c0,20.9,4.3,36.9,12.9,47.9c8.6,11,21,16.5,37.4,16.5c8.5,0,17.2-0.9,26-2.6v-40.2h-36.5v-34h76.5V747.4z"/>
</g>
</svg>
