<?xml version="1.0" encoding="utf-8"?>
<!-- Generated by IcoMoon.io -->
<!DOCTYPE svg PUBLIC "-//W3C//DTD SVG 1.1//EN" "http://www.w3.org/Graphics/SVG/1.1/DTD/svg11.dtd">
<svg version="1.1" xmlns="http://www.w3.org/2000/svg" xmlns:xlink="http://www.w3.org/1999/xlink" width="1024" height="1024" viewBox="0 0 1024 1024">
<g id="icomoon-ignore">
</g>
<path d="M966.9 482.6h-70.9v-146.6c0-44-25.5-105.5-56.6-136.6v0l-142.8-142.8c-31.1-31.1-92.6-56.6-136.6-56.6h-480c-44 0-80 36-80 80v864c0 44 36 80 80 80h736c44 0 80-36 80-80v-80.5h70.9c31.4 0 57.1-25.7 57.1-57.1v-266.7c0-31.4-25.7-57.1-57.1-57.1zM640.1 92.6c4.4 3.1 8.2 6.2 11.3 9.3l142.8 142.8c3.1 3.1 6.2 6.9 9.3 11.3h-163.4v-163.4zM832 944c0 8.7-7.3 16-16 16h-736c-8.7 0-16-7.3-16-16v-864c0-8.7 7.3-16 16-16h480c4.8 0 10.2 0.6 16 1.7v254.3h254.3c1.1 5.8 1.7 11.2 1.7 16v146.6h-601.8c-31.4 0-57.1 25.7-57.1 57.1v266.8c0 31.4 25.7 57.1 57.1 57.1h601.8v80.4zM483.3 755.5h-46.3l-26-100.9c-1-3.6-2.6-11-4.9-22.3s-3.7-18.8-4-22.7c-0.5 4.7-1.8 12.3-3.9 22.8s-3.7 17.9-4.9 22.4l-25.9 100.6h-46.2l-49-192h40.1l24.6 104.8c4.3 19.4 7.4 36.1 9.3 50.3 0.5-5 1.7-12.7 3.6-23.2s3.7-18.6 5.3-24.4l28-107.6h38.5l28 107.6c1.2 4.8 2.8 12.2 4.6 22.1s3.2 18.4 4.2 25.5c0.9-6.8 2.3-15.3 4.2-25.5s3.7-18.5 5.3-24.8l24.4-104.8h40.1l-49.1 192.1zM700.8 755.5l-13.9-45.7h-70l-13.9 45.7h-43.9l67.8-192.8h49.8l68 192.8h-43.9zM677.2 675.7c-12.9-41.4-20.1-64.8-21.7-70.3-1.6-5.4-2.8-9.7-3.5-12.9-2.9 11.2-11.2 38.9-24.8 83.1h50zM836.5 681.9v73.7h-40.7v-192h56c26.1 0 45.4 4.8 57.9 14.3s18.8 23.9 18.8 43.3c0 11.3-3.1 21.3-9.3 30.1s-15 15.7-26.4 20.7c28.9 43.2 47.7 71.1 56.5 83.7h-45.3l-45.8-73.7h-21.7zM836.5 648.8h13.1c12.9 0 22.4-2.1 28.5-6.4s9.2-11 9.2-20.2c0-9.1-3.1-15.6-9.4-19.4-6.3-3.9-16-5.8-29.1-5.8h-12.3v51.8z"></path>
</svg>
