<svg version="1.1" id="Layer_1" xmlns="http://www.w3.org/2000/svg" xmlns:xlink="http://www.w3.org/1999/xlink" x="0px" y="0px"
	 viewBox="0 0 1024 1024" style="enable-background:new 0 0 1024 1024;" xml:space="preserve">
<g>
	<path d="M594.2,593.9c-16.3,0-28.5,5.5-36.8,16.4c-8.3,10.9-12.4,27.2-12.4,48.7c0,21.5,4.1,37.8,12.3,48.6
		c8.2,10.9,20.4,16.3,36.7,16.3c32.6,0,48.9-21.7,48.9-65C642.8,615.6,626.6,593.9,594.2,593.9z"/>
	<path d="M966.9,482.6H896V336c0-44-25.5-105.5-56.6-136.6L696.6,56.6C665.5,25.5,604,0,560,0H80C36,0,0,36,0,80v864
		c0,44,36,80,80,80h736c44,0,80-36,80-80v-80.5h70.9c31.4,0,57.1-25.7,57.1-57.1V539.7C1024,508.3,998.3,482.6,966.9,482.6z
		 M640.1,92.6c4.4,3.1,8.2,6.2,11.3,9.3l142.8,142.8c3.1,3.1,6.2,6.9,9.3,11.3H640.1V92.6z M832,944c0,8.7-7.3,16-16,16H80
		c-8.7,0-16-7.3-16-16V80c0-8.7,7.3-16,16-16h480c4.8,0,10.2,0.6,16,1.7V320h254.3c1.1,5.8,1.7,11.2,1.7,16v146.6H230.2
		c-31.4,0-57.1,25.7-57.1,57.1v266.8c0,31.4,25.7,57.1,57.1,57.1H832V944z M685.7,659.1c0,31.9-7.9,56.4-23.7,73.6
		s-38.5,25.7-68,25.7s-52.2-8.6-68-25.7s-23.7-41.7-23.7-73.8c0-32.1,7.9-56.6,23.8-73.5c15.9-16.9,38.6-25.4,68.2-25.4
		c29.6,0,52.3,8.5,68,25.6C677.8,602.6,685.7,627.1,685.7,659.1z M451.6,722v33.8h-119V563h40.9v159H451.6z M900.9,747.4
		c-12.4,4-24.1,6.9-35,8.5c-10.9,1.6-22.1,2.4-33.6,2.4c-29.1,0-51.3-8.5-66.6-25.6c-15.3-17.1-23-41.6-23-73.6
		c0-31.1,8.9-55.4,26.7-72.8c17.8-17.4,42.5-26.1,74-26.1c19.8,0,38.8,4,57.2,11.9l-13.6,32.7c-14.1-7-28.7-10.5-43.9-10.5
		c-17.7,0-31.8,5.9-42.5,17.8c-10.6,11.9-16,27.8-16,47.9c0,20.9,4.3,36.9,12.9,47.9c8.6,11,21,16.5,37.4,16.5
		c8.5,0,17.2-0.9,26-2.6v-40.2h-36.5v-34h76.5V747.4z"/>
</g>
</svg>
