<?xml version="1.0" encoding="utf-8"?>
<svg version="1.1" xmlns="http://www.w3.org/2000/svg" width="1024" height="1024" viewBox="0 0 1024 1024">
<g>
	<path d="M966.9,482.6H896V336c0-44-25.5-105.5-56.6-136.6L696.6,56.6C665.5,25.5,604,0,560,0H80C36,0,0,36,0,80v864
		c0,44,36,80,80,80h736c44,0,80-36,80-80v-80.5h70.9c31.4,0,57.1-25.7,57.1-57.1V539.7C1024,508.3,998.3,482.6,966.9,482.6z
		 M640.1,92.6c4.4,3.1,8.2,6.2,11.3,9.3l142.8,142.8c3.1,3.1,6.2,6.9,9.3,11.3H640.1V92.6z M832,944c0,8.7-7.3,16-16,16H80
		c-8.7,0-16-7.3-16-16V80c0-8.7,7.3-16,16-16h480c4.8,0,10.2,0.6,16,1.7V320h254.3c1.1,5.8,1.7,11.2,1.7,16v146.6H230.2
		c-31.4,0-57.1,25.7-57.1,57.1v266.8c0,31.4,25.7,57.1,57.1,57.1H832V944z M639.4,563v192.7h-40.9V563H639.4z M401.3,596.7V563
		h138.4v26.4l-92.3,132.6h94.8v33.8H398.8v-26.5l92.4-132.5H401.3z M827.3,670.7c-13,11-31.4,16.5-55.3,16.5h-17.5v68.6h-40.9V563
		h61.6c23.4,0,41.2,5,53.3,15.1c12.2,10.1,18.3,25.1,18.3,45C846.8,643.8,840.3,659.7,827.3,670.7z"/>
	<path d="M797.6,603.3c-5.2-4.6-13.4-6.9-24.6-6.9h-18.6v57.2h13.4c12.6,0,22-2.5,28.2-7.4c6.2-5,9.4-12.2,9.4-21.7
		C805.5,614.9,802.9,607.9,797.6,603.3z"/>
</g>
</svg>
