<svg version="1.1" id="Layer_1" xmlns="http://www.w3.org/2000/svg" xmlns:xlink="http://www.w3.org/1999/xlink" x="0px" y="0px"
	 viewBox="0 0 1024 1024" style="enable-background:new 0 0 1024 1024;" xml:space="preserve">
<g>
	<path d="M610.1,605c-1.6-5.4-2.8-9.8-3.5-12.9c-2.9,11.3-11.2,39.1-24.9,83.5h50.2C619,634,611.7,610.5,610.1,605z"/>
	<path d="M419.2,634.1c5-3.4,7.4-9.1,7.4-17c0-7.4-2.7-12.7-8.1-15.9c-5.4-3.2-14-4.8-25.6-4.8h-21.5v42.8h23.7
		C406.2,639.3,414.3,637.6,419.2,634.1z"/>
	<path d="M396.7,671.7h-25.3V722h26.6c11.2,0,19.6-2.2,24.9-6.5c5.4-4.3,8-10.9,8-19.8C431,679.7,419.6,671.7,396.7,671.7z"/>
	<path d="M966.9,482.6H896V336c0-44-25.5-105.5-56.6-136.6L696.6,56.6C665.5,25.5,604,0,560,0H80C36,0,0,36,0,80v864
		c0,44,36,80,80,80h736c44,0,80-36,80-80v-80.5h70.9c31.4,0,57.1-25.7,57.1-57.1V539.7C1024,508.3,998.3,482.6,966.9,482.6z
		 M640.1,92.6c4.4,3.1,8.2,6.2,11.3,9.3l142.8,142.8c3.1,3.1,6.2,6.9,9.3,11.3H640.1V92.6z M832,944c0,8.7-7.3,16-16,16H80
		c-8.7,0-16-7.3-16-16V80c0-8.7,7.3-16,16-16h480c4.8,0,10.2,0.6,16,1.7V320h254.3c1.1,5.8,1.7,11.2,1.7,16v146.6H230.2
		c-31.4,0-57.1,25.7-57.1,57.1v266.8c0,31.4,25.7,57.1,57.1,57.1H832V944z M699.6,755.7h-44l-14-45.9h-70.3l-14,45.9h-44l68-193.5
		h50L699.6,755.7z M465.4,670c5.4,7.5,8.1,17.4,8.1,29.8c0,17.6-6.4,31.3-19.1,41.1c-12.7,9.8-29.9,14.8-51.7,14.8h-72.1V563h60
		c27.3,0,47.2,3.9,59.5,11.7c12.3,7.8,18.5,20.2,18.5,37.1c0,11.5-2.7,21-8.1,28.3c-5.4,7.4-12.6,11.8-21.6,13.3v1.3
		C451.1,657.4,460,662.5,465.4,670z M876.2,597h-52.3v158.7H783V597h-52.3v-34h145.5V597z"/>
</g>
</svg>
