<?xml version="1.0" encoding="utf-8"?>
<!-- Generated by IcoMoon.io -->
<!DOCTYPE svg PUBLIC "-//W3C//DTD SVG 1.1//EN" "http://www.w3.org/Graphics/SVG/1.1/DTD/svg11.dtd">
<svg version="1.1" xmlns="http://www.w3.org/2000/svg" xmlns:xlink="http://www.w3.org/1999/xlink" width="1024" height="1024" viewBox="0 0 1024 1024">
<g id="icomoon-ignore">
</g>
<path d="M7.7 674.1c220.3 0.8 440.6 1.6 660.9 2.4 19.8 0.1 39.6 0 62.3 0 0 49.2 0 94 0 149.4-240.6 0-481.9 0-723.3 0 0.1-50.6 0.1-101.2 0.1-151.8zM1019.7 1018.2c0-50.6 0-101.2 0-151.8-231.3 0-462.6 0-698.3 0 0 57.8 0 104.8 0 151.8 232.8 0 465.6 0 698.3 0zM7.7 1018.2c87.7 0 175.4 0 263.1 0 0-48.1 0-96.3 0-151.8-92.9 0-178 0-263.1 0 0 50.6 0 101.2 0 151.8zM1019.7 481.8c-75.5 0-151 0-218.6 0-14.2 35.1-20.8 63.7-36.3 86.2-15.9 23-40.4 40.1-67.3 65.6 113.3 0 217.8 0 322.3 0-0.1-50.6-0.1-101.2-0.1-151.8zM1019.7 674.1c-76.1 0-152.3 0-227.5 0 0 55.4 0 100.1 0 151.8 77.7 0 152.6 0 227.5 0 0-50.6 0-101.2 0-151.8zM7.7 633.6c88.4 0 176.8 0 280.5 0-63.1-42.8-107.4-80.6-102.3-151.8-63.8 0-121 0-178.2 0 0 50.6 0 101.2 0 151.8zM737.9 454.7c32.4-154.6-24.6-281.4-151.9-333.2-46.3 65.7 9.3 123.1 12.1 189-37-26-71.9-53.6-98-88-40.9-53.8-23.4-114-1.7-172.9-86.9 11.6-168.3 130.2-137.2 221.9 9.7 28.6 26.5 55.2 32.9 84.3 4.2 19.1-4.6 41-7.5 61.6-19.5-11.2-47.3-17.7-56.7-34.5-15.3-27.4-18.5-61.5-27-93.1-64 55.1-83.1 140.8-48.3 214.7 25.7 54.6 83.4 90.9 137 86.2 52.7-4.6 95.8-46.1 109.3-110.4 7.8-37.1 9.4-75.4 13.9-113.8 73.2 42.9 123.1 144.3 16.3 254.2 95.9 1.9 187.5-73.6 206.8-166z"></path>
</svg>
