<svg version="1.1" xmlns="http://www.w3.org/2000/svg" width="1024" height="1024" viewBox="0 0 1024 1024">
<path d="M7.7,674.1c220.3,0.8,440.6,1.6,660.9,2.4c19.8,0.1,39.6,0,62.3,0c0,49.2,0,94,0,149.4c-240.6,0-481.9,0-723.3,0
	C7.7,775.3,7.7,724.7,7.7,674.1L7.7,674.1z M1019.7,1018.2c0-50.6,0-101.2,0-151.8c-231.3,0-462.6,0-698.3,0c0,57.8,0,104.8,0,151.8
	C554.2,1018.2,787,1018.2,1019.7,1018.2z M7.7,1018.2c87.7,0,175.4,0,263.1,0c0-48.1,0-96.3,0-151.8c-92.9,0-178,0-263.1,0
	C7.7,917,7.7,967.6,7.7,1018.2L7.7,1018.2z M1019.7,481.8c-75.5,0-151,0-218.6,0c-14.2,35.1-20.8,63.7-36.3,86.2
	c-15.9,23-40.4,40.1-67.3,65.6c113.3,0,217.8,0,322.3,0C1019.7,583,1019.7,532.4,1019.7,481.8z M1019.7,674.1
	c-76.1,0-152.3,0-227.5,0c0,55.4,0,100.1,0,151.8c77.7,0,152.6,0,227.5,0C1019.7,775.3,1019.7,724.7,1019.7,674.1z M7.7,633.6
	c88.4,0,176.8,0,280.5,0c-63.1-42.8-107.4-80.6-102.3-151.8c-63.8,0-121,0-178.2,0C7.7,532.4,7.7,583,7.7,633.6L7.7,633.6z
	 M737.9,454.7c32.4-154.6-24.6-281.4-151.9-333.2c-46.3,65.7,9.3,123.1,12.1,189c-37-26-71.9-53.6-98-88
	c-40.9-53.8-23.4-114-1.7-172.9c-86.9,11.6-168.3,130.2-137.2,221.9c9.7,28.6,26.5,55.2,32.9,84.3c4.2,19.1-4.6,41-7.5,61.6
	c-19.5-11.2-47.3-17.7-56.7-34.5c-15.3-27.4-18.5-61.5-27-93.1c-64,55.1-83.1,140.8-48.3,214.7c25.7,54.6,83.4,90.9,137,86.2
	c52.7-4.6,95.8-46.1,109.3-110.4c7.8-37.1,9.4-75.4,13.9-113.8c73.2,42.9,123.1,144.3,16.3,254.2C627,622.6,718.6,547.1,737.9,454.7
	L737.9,454.7z"/>
</svg>
