<?xml version="1.0" encoding="utf-8"?>
<svg version="1.1" xmlns="http://www.w3.org/2000/svg" width="1024" height="1024" viewBox="0 0 1024 1024">
<path d="M5 478.2c0-74.6 18.2-137.6 54.6-189.2 36.4-51.4 85.2-77.2 146-77.2 127 0 190.6 92.8 190.6 278.2 0 86.8-17.2 156-51.4 207.8-34.4 51.8-82.4 77.6-144.4 77.6-66.6 0-115.8-23.8-147.8-71.6-31.8-47.8-47.6-123-47.6-225.6zM105.8 484.8c0 72.8 7 126.4 21.2 160.8s37.6 51.4 70.6 51.4c35.6 0 60.8-15.4 75.8-46.4s22.4-86.2 22.4-165.4c0-73.8-7.2-124.8-21.4-153-14.6-28-38-42-70.6-42-65.4 0-98 64.8-98 194.6zM433.8 719.2c0-18.6 6.6-34.6 19.6-47.6s29-19.6 47.6-19.6 34.6 6.6 47.6 19.6c13 13 19.6 29 19.6 47.6s-6.6 34.6-19.6 47.8c-13 13.2-29 19.8-47.6 19.8s-34.6-6.6-47.6-19.8c-13-13.2-19.6-29.2-19.6-47.8zM621.6 478.2c0-74.6 18.2-137.6 54.6-189.2 36.4-51.4 85.2-77.2 146-77.2 127 0 190.6 92.8 190.6 278.2 0 86.8-17.2 156-51.4 207.8-34.4 51.8-82.4 77.6-144.4 77.6-66.6 0-115.8-23.8-147.8-71.6-31.6-47.8-47.6-123-47.6-225.6zM722.4 484.8c0 72.8 7 126.4 21.2 160.8s37.6 51.4 70.6 51.4c35.6 0 60.8-15.4 75.8-46.4s22.4-86.2 22.4-165.4c0-73.8-7.2-124.8-21.4-153-14.4-28.2-37.8-42.2-70.4-42.2-65.6 0.2-98.2 65-98.2 194.8z"></path>
</svg>
