<?xml version="1.0" encoding="utf-8"?>
<svg version="1.1" xmlns="http://www.w3.org/2000/svg" width="1024" height="1024" viewBox="0 0 1024 1024">
<path d="M918.9,318.3C800.1-17.7,514.4,3.7,514.4,3.7s-292.8-12.8-413.2,318c-66.2,324,412.3,699,412.3,699S1005.4,627,918.9,318.3z
	 M512,857.8c0,0-284.2-296.9-284.2-453.8c0-156.9,127.2-284.2,284.2-284.2c156.9,0,284.2,127.2,284.2,284.2
	C796.2,560.9,512,857.8,512,857.8z M655.1,399.7c0,78.2-63.4,141.7-141.7,141.7s-141.7-63.4-141.7-141.7S435.2,258,513.4,258
	S655.1,321.5,655.1,399.7z M724.2,979.9c0,21.1-17.1,38.2-38.2,38.2c-21.1,0-38.2-17.1-38.2-38.2s17.1-38.2,38.2-38.2
	C707.1,941.7,724.2,958.8,724.2,979.9z M826.9,979.9c0,21.1-17.1,38.2-38.2,38.2c-21.1,0-38.2-17.1-38.2-38.2s17.1-38.2,38.2-38.2
	C809.8,941.7,826.9,958.8,826.9,979.9z M928.7,979.9c0,21.1-17.1,38.2-38.2,38.2c-21.1,0-38.2-17.1-38.2-38.2s17.1-38.2,38.2-38.2
	C911.6,941.7,928.7,958.8,928.7,979.9z"/>
</svg>
