<?xml version="1.0" encoding="utf-8"?>
<svg version="1.1" xmlns="http://www.w3.org/2000/svg" width="1024" height="1024" viewBox="0 0 1024 1024">
<path d="M891.5,754.7c-69.4,0-125.6-56.2-125.6-125.6c0-20.8,5.1-40.4,14-57.5L609.8,417.3c-22.9,18.1-49.9,31.2-79.6,37.2
	l0.2,186.6c54.1,14,93.9,63.1,93.9,121.5c0,69.4-56.2,125.6-125.6,125.6S373.1,832,373.1,762.6c0-56.2,36.9-103.8,87.9-119.8
	L460.8,456c-31.5-4.9-60.3-17.6-84.7-35.9l-131,111.3c8.2,16.6,12.9,35.4,12.9,55.2c0,69.4-56.2,125.6-125.6,125.6
	S6.7,656,6.7,586.6C6.7,517.2,62.9,461,132.3,461c24.4,0,47.1,6.9,66.3,19L329.1,369c-18.5-29.3-29.2-64.3-29.2-101.7
	c0-105.7,85.5-191.2,191.2-191.2s191.2,85.5,191.2,191.2c0,35.8-9.9,69.2-26.9,97.9l171.9,156.1c18.8-11.2,40.7-17.6,64.1-17.6
	c69.4,0,125.6,56.2,125.6,125.6C1016.9,698.5,960.7,754.7,891.5,754.7L891.5,754.7z"/>
</svg>
