<?xml version="1.0" encoding="utf-8"?>
<svg version="1.1" xmlns="http://www.w3.org/2000/svg" width="1024" height="1024" viewBox="0 0 1024 1024">
<path d="M594.7,856.2c-15.1-2.4-15.5-43.6-15.5-43.6s44.4-43.6,54-102.3c26.1,0,42.2-62.3,16.2-84.3
	c1.1-23.1,33.5-181.3-130.6-181.3S387.1,602.8,388.3,625.9c-26,22-10,84.3,16,84.3c9.7,58.7,54.2,102.3,54.2,102.3
	s-0.4,41.2-15.5,43.6c-48.7,7.7-230.7,87.3-230.7,174.5h613.1C825.3,943.4,643.3,863.8,594.7,856.2L594.7,856.2L594.7,856.2z
	 M282.6,870c35.2-21.7,78-41.7,112.9-53.8C383,798.3,369,774,360.2,745.2c-12.3-10.1-22.3-24.4-28.8-42c-6.4-17.7-8.9-37.4-6.9-55.7
	c1.4-13.1,5.2-25.3,10.9-36c-3.5-37.2-6-110.2,41.9-163.5c18.5-20.6,42-35.5,70-44.4c-5-51.7-31.3-112.3-132.9-112.3
	c-164.1,0-131.7,158.2-130.6,181.3c-26,22-10,84.4,16.1,84.4c9.7,58.7,54.1,102.3,54.1,102.3s-0.4,41.3-15.5,43.6
	C189.9,710.6,8,790.1,8,877.4h263.1C274.8,874.9,278.7,872.6,282.6,870L282.6,870L282.6,870z M741.4,871c3.9,2.4,7.7,4.9,11.6,7.3
	H1016c0-87.3-182-166.8-230.7-174.5c-15.2-2.4-15.5-43.7-15.5-43.7s44.5-43.6,54.2-102.3c26,0,42.1-62.3,16-84.3
	c1.1-23.1,33.5-181.3-130.5-181.3c-101.7,0-127.9,60.6-132.9,112.3c28.1,9,51.5,23.8,70,44.5c47.7,53.3,45.3,126.2,41.8,163.5
	c5.8,10.7,9.5,22.9,10.9,35.9c2,18.3-0.4,38-6.9,55.7c-6.4,17.6-16.4,31.9-28.7,42c-8.8,28.9-22.8,53.2-35.4,71.1
	C663.5,829.3,706.2,849.3,741.4,871L741.4,871L741.4,871z"/>
</svg>
