<?xml version="1.0" encoding="utf-8"?>
<svg version="1.1" xmlns="http://www.w3.org/2000/svg" width="1024" height="1024" viewBox="0 0 1024 1024">
<path d="M491.4,621V176H330.2v-59.6c21,0,41.4-1.6,61.4-4.8c19.8-3.2,37.8-9.2,53.8-18s29.6-20.8,40.8-36
	c11-15.2,18.6-34.4,22.8-57.8h57v621h-74.6V621z M27.2,535.2c8.2-26.8,20.8-50,38.2-69.6c17.2-19.6,38.6-34.8,64.4-46
	c25.6-11,54.8-16.6,87.6-16.6c26.8,0,52.2,4,75.8,11.8S337.4,434,355,449c17.6,14.8,31.4,33.4,41.6,55.6
	c10.2,22.2,15.4,47.8,15.4,77c0,27.4-4.2,51.6-12.8,72.8c-8.4,21-19.8,39.8-33.8,56.4s-30,31.6-48.2,45.2
	c-18.2,13.4-36.8,26.2-56,38.6c-19.2,11.6-38.6,23.2-57.8,34.6s-37,23.6-53,36.4c-16,12.8-29.8,26.8-41.2,41.6s-18.8,32-22.4,51.2
	h318.8v65.6H0c3-36.8,9.4-68.2,19.8-94.2c10.2-26,23.2-48.6,39-67.8s33.6-36.2,53.4-50.8s40.6-28.4,62.2-41.2
	c26.2-16.4,49.4-31.4,69.2-45.2s36.4-27.6,49.4-41.6c13.2-14,23-29.2,29.8-45.6s10-35.4,10-57c0-17-3.2-32.2-9.6-46
	s-15-25.6-25.8-35.4c-10.8-10-23.6-17.6-38.2-22.8s-30-7.8-46.4-7.8c-21.6,0-40.2,4.6-55.6,13.6S129,503,119,517.6
	c-10,14.6-17,31-21.4,49.4s-6.2,37-5.6,55.6H17.6C15.8,591.2,19,562.2,27.2,535.2L27.2,535.2z M776.2,660.4c3,0,5.8,0,8.8,0h15.8
	c15.8,0,30.8-2.2,45.2-6.6s26.8-10.8,37.6-19.2s19.4-19.2,25.8-32s9.6-27.4,9.6-43.8c0-33.2-10.6-58.2-31.6-74.8s-47.2-25-78.8-25
	c-19.8,0-37.2,3.6-52.2,11c-14.8,7.4-27.2,17-36.8,29.4c-9.6,12.2-16.8,26.6-21.4,43s-7,33.6-7,51.6h-74.4c1.2-29.8,6-57,14.4-81.4
	c8.4-24.6,20.6-45.6,36.4-63c15.8-17.6,35.4-31.2,59.2-41.2c23.6-10,51-14.8,81.8-14.8c26.8,0,51.8,3.4,74.8,10
	c23,6.8,43,16.8,60,30.2s30.2,30.6,39.8,51.6s14.4,45.8,14.4,74.4c0,28-8.2,52.8-24.6,74.4s-36.8,38-61.4,49v1.8
	c38,8.2,66.2,26,84.6,53.4s27.6,59.8,27.6,97.2c0,31-5.6,58.2-17,81.8s-26.8,43.4-46,59.2s-42,27.6-67.8,35.4
	c-26,7.8-53.6,11.8-82.8,11.8c-31.6,0-60.2-4.4-85.8-13.2c-25.8-8.8-47.6-21.8-65.6-39c-18.2-17.2-32-38.4-41.6-63.6
	s-14.2-53.8-13.6-85.8H678c1.2,40.2,12.8,73.2,35,98.6s54.6,38.2,97.2,38.2c18,0,35.4-2.8,51.6-8.4c16.4-5.6,30.6-13.4,43-23.6
	c12.2-10.2,22-22.8,29.4-37.6c7.2-14.8,11-31.6,11-50.4c0-19.2-3.6-36.4-10.6-51.2s-16.4-27.4-28-37.6C895,740,881,732.4,865,727.4
	s-33.4-7.4-52.2-7.4c-15.8,0-30.6,0.8-44.6,2.6v-63C771.2,660.2,773.8,660.4,776.2,660.4L776.2,660.4z"/>
</svg>
