<?xml version="1.0" encoding="utf-8"?>
<svg version="1.1" xmlns="http://www.w3.org/2000/svg" width="1024" height="1024" viewBox="0 0 1024 1024">
<path d="M918.7,771.7c53.2-78.1,84.3-172.4,84.3-274.1c0-265.1-211-480.3-474.4-487c-3.4-0.1-7.6,0-12.6,0l0,0
	c-269.3,0-487,217.7-487,487c0,101.3,30.8,195.3,83.6,273.2L6.3,877l136.5,136.5L250.3,906c76.4,49.7,167.6,78.6,265.7,78.6
	c97.6,0,188.3-28.9,264.4-78.2l100.9,100.8l136.4-136.6L918.7,771.7z M516,823.4c-53.1,0-103.3-12.8-147.6-35.5l105.5-105.5
	L337.3,546.1l-9,9L230,653.4c-25.3-46.3-39.7-99.4-39.7-155.8c0-179.6,146.2-325.8,325.8-325.8S841.9,318,841.9,497.6
	S695.6,823.4,516,823.4z"/>
<path d="M516,404.2c-51.6,0-93.3,41.7-93.3,93.4c0,51.6,41.7,93.4,93.3,93.4c51.6,0,93.4-41.7,93.4-93.4
	C609.4,445.9,567.7,404.2,516,404.2z"/>
</svg>
