<?xml version="1.0" encoding="utf-8"?>
<!-- Generator: Adobe Illustrator 20.1.0, SVG Export Plug-In . SVG Version: 6.00 Build 0)  -->
<svg version="1.1" id="Layer_1" xmlns="http://www.w3.org/2000/svg" xmlns:xlink="http://www.w3.org/1999/xlink" x="0px" y="0px"
	 viewBox="0 0 1018 1024" style="enable-background:new 0 0 1018 1024;" xml:space="preserve">
<path d="M767,657c10.5-10.1,24.9-12.9,32.1-5.2l214.3,214.6c7.1,7.3,4.6,21.8-5.9,32.4l-113.7,113.2c-10.5,10.5-24.9,12.9-32.2,5.7
	l-213.9-215c-7.4-7.4-4.7-21.7,5.7-32L767,657L767,657z M1017.2,501.4c0,277.1-224.4,501.3-501.4,501.3
	c-276.9,0-501.5-224.2-501.5-501.3C14.3,224.5,238.8,0,515.8,0C792.9,0,1017.2,224.5,1017.2,501.4L1017.2,501.4z M515.7,214.9
	c-158.1,0-286.5,128.2-286.5,286.5c0,158.6,128.3,286.7,286.5,286.7c158.3,0,286.8-128.1,286.8-286.7
	C802.5,343.1,674.1,214.9,515.7,214.9L515.7,214.9z M478.8,663c10.8,10.4,10.8,28,0,39l-315.7,313.7c-10.5,11.2-28,11.2-38.7,0
	L7.9,898.7c-10.7-10.5-10.7-27.9,0-38.7l315.6-314.2c10.7-10.6,28.3-10.5,38.8,0.3L478.8,663L478.8,663z M597.5,429.6
	c45,45.1,44.6,118-0.5,163c-44.8,44.8-118.1,44.5-162.9-0.4c-44.9-45-44.7-118,0.5-163C479.5,384.3,552.5,384.4,597.5,429.6
	L597.5,429.6z"/>
</svg>
