<?xml version="1.0" encoding="utf-8"?>
<!-- Generator: Adobe Illustrator 20.1.0, SVG Export Plug-In . SVG Version: 6.00 Build 0)  -->
<svg version="1.1" id="Layer_1" xmlns="http://www.w3.org/2000/svg" xmlns:xlink="http://www.w3.org/1999/xlink" x="0px" y="0px"
	 viewBox="0 0 1018 1024" style="enable-background:new 0 0 1018 1024;" xml:space="preserve">
<g>
	<path d="M1013.4,866.4l-82.9-83c54.7-80.3,86.7-177.4,86.7-282C1017.2,224.5,792.9,0,515.8,0C238.8,0,14.3,224.5,14.3,501.4
		c0,100.4,29.5,193.9,80.3,272.3L7.9,860c-10.7,10.8-10.7,28.2,0,38.7l116.5,117c10.7,11.2,28.2,11.2,38.7,0l88.6-88
		c76.7,47.6,167.2,75,264.1,75c94.9,0,183.6-26.3,259.2-72l86.6,87c7.3,7.2,21.7,4.8,32.2-5.7l113.7-113.2
		C1018,888.2,1020.5,873.7,1013.4,866.4z M515.7,788.1c-36.7,0-71.7-6.9-104-19.4l67.1-66.7c10.8-11,10.8-28.6,0-39L362.3,546.1
		c-10.5-10.8-28.1-10.9-38.8-0.3L253,616c-15.3-35.1-23.8-73.8-23.8-114.6c0-158.3,128.4-286.5,286.5-286.5
		c158.4,0,286.8,128.2,286.8,286.5C802.5,660,674,788.1,515.7,788.1z"/>
	<path d="M434.6,429.2c-45.2,45-45.4,118-0.5,163c44.8,44.9,118.1,45.2,162.9,0.4c45.1-45,45.5-117.9,0.5-163
		C552.5,384.4,479.5,384.3,434.6,429.2z"/>
</g>
</svg>
