<svg version="1.1" xmlns="http://www.w3.org/2000/svg" width="1024" height="1024" viewBox="0 0 1024 1024">
<path d="M921.6,834.6L645.1,935.9V318.5l279.6-97.3L921.6,834.6l66.6,23.6V141.3L468,13.3L12.3,133.1v729.1l599,148.5l376.8-152.6
	L921.6,834.6L921.6,834.6z M75.8,210.9l500.7,115.7v614.4L74.8,816.1L75.8,210.9L75.8,210.9z M238.6,360.4l142.3,34.8l-1,98.3
	l110.6,26.6l-8.2,346.1l-64.5-16.4l2-122.9l-24.6-6.1l-1,120.8l-37.9-9.2l1-121.9l-27.6-7.2l-1,122.9l-39.9-10.2V693.2l-23.6-6.1
	l-1,122.9l-39.9-10.2l-1-122.9l-28.7-7.2v122.9l-62.5-15.4L128,430.1l111.6,27.6L238.6,360.4L238.6,360.4z M748.5,389.1l81.9-27.6
	v99.3l63.5-22.5l-3.1,362.5L853,814.1l1-130l-14.3,5.1l-1,128l-22.5,8.2l1-129l-16.4,6.1v130l-23.6,8.2v-130l-14.3,5.1l-1,131.1
	l-23.6,8.2V724l-16.4,6.1l-1,131.1L684,874.5V507.9l65.5-22.5L748.5,389.1L748.5,389.1z"/>
</svg>
