<?xml version="1.0" encoding="utf-8"?>
<!-- Generator: Adobe Illustrator 20.1.0, SVG Export Plug-In . SVG Version: 6.00 Build 0)  -->
<svg version="1.1" id="Layer_1" xmlns="http://www.w3.org/2000/svg" xmlns:xlink="http://www.w3.org/1999/xlink" x="0px" y="0px"
	 viewBox="0 0 1024 1024" style="enable-background:new 0 0 1024 1024;" xml:space="preserve">
<path d="M1009.7,293.9H97.3V117.8c0,0,0-11.3-6.1-16.4c-5.1-5.1-19.5-3.1-19.5-3.1l-66.6-1v39.9H41c0,0,15.4-2,15.4,5.1l1,9.2
	l1,151.6v623.6h144.4V793.6h806.9c5.1,0,9.2-4.1,9.2-9.2V303.1C1018.9,298,1014.8,293.9,1009.7,293.9L1009.7,293.9z M986.1,755.7
	c0,4.1-4.1,8.2-8.2,8.2H105.5c-4.1,0-8.2-4.1-8.2-8.2V343c0-4.1,4.1-8.2,8.2-8.2h872.4c4.1,0,8.2,4.1,8.2,8.2V755.7z M431.1,775.2
	l-1,151.6H980V775.2H431.1z M557.1,899.1h-95.2V788.5h95.2V899.1z M691.2,898H596V788.5h95.2V898z M821.2,898H726V788.5h95.2V898z
	 M946.2,899.1h-95.2V788.5h95.2V899.1z M314.4,618.5H97.3V388.1h217.1V618.5z M881.7,709.6H777.2V600.1h104.4V709.6z M744.4,709.6
	H640V600.1h104.4V709.6z M609.3,710.7H504.8V601.1h104.4V710.7z M189.4,644.1h668.7v26.6H189.4V644.1z M189.4,600.1h29.7v62.5h-29.7
	V600.1z"/>
</svg>
