<?xml version="1.0" encoding="utf-8"?>
<svg version="1.1" xmlns="http://www.w3.org/2000/svg" width="1024" height="1024" viewBox="0 0 1024 1024">
<g>
	<path d="M830.4,776.2L781.3,679l-65.4,85l23.2,46.9c-21.1,21.3-34.2,50.7-34.2,83.1c0,65.2,52.8,118,118,118s118-52.8,118-118
		C941,831.3,892.1,780.1,830.4,776.2z"/>
	<path d="M565.3,242.3c36.4-20.1,61-58.8,61-103.3c0-65.2-52.8-118-118-118s-118,52.8-118,118c0,48.1,28.7,89.4,70,107.8l3.2,265
		L260.4,723.9c-13.2-5.1-27.5-7.9-42.5-7.9c-65.2,0-118,52.8-118,118s52.8,118,118,118s118-52.8,118-118c0-10.3-1.3-20.3-3.8-29.8
		l185.6-198.7l140.5,131.1l33.7-97.4L570.1,511.9L565.3,242.3z"/>
</g>
</svg>
