<svg version="1.1" xmlns="http://www.w3.org/2000/svg" width="1024" height="1024" viewBox="0 0 1024 1024">
<path d="M145,541.8v-86.2c17.5-1,30.7-3.6,39.5-7.9c8.9-4.3,16.5-11.6,23-21.7c6.5-10.2,10.9-22.9,13.3-38.3
	c1.9-11.5,2.9-31.5,2.9-60c0-46.5,2.2-78.9,6.5-97.2s12.1-33.1,23.4-44.2c11.3-11.1,27.7-19.9,49.2-26.4c14.6-4.3,37.6-6.5,69-6.5
	h19v85.9c-26.6,0-43.7,1.5-51.2,4.5s-13.1,7.5-16.7,13.7c-3.6,6.1-5.4,16.6-5.4,31.4c0,15.1-1.1,43.7-3.2,85.9
	c-1.2,23.7-4.3,42.9-9.3,57.7c-5,14.7-11.4,26.9-19.2,36.5s-19.7,19.5-35.8,29.8c14.1,8.1,25.7,17.7,34.7,28.6s15.9,24.1,20.7,39.7
	c4.8,15.6,7.9,36.4,9.3,62.5c1.7,39.8,2.5,65.2,2.5,76.2c0,15.8,1.9,26.8,5.7,33.1c3.8,6.2,9.6,11,17.4,14.2s24.6,4.9,50.5,4.9v86
	h-19c-32.3,0-57.1-2.6-74.4-7.7c-17.2-5.2-31.8-13.7-43.7-25.7s-19.8-26.8-23.9-44.4c-4.1-17.6-6.1-45.3-6.1-83.2
	c0-44.1-1.9-72.7-5.7-85.9c-5.3-19.2-13.2-32.9-23.9-41.1S167,543,145,541.8L145,541.8z M876.2,541.8c-17.5,1-30.7,3.6-39.5,7.9
	c-8.9,4.3-16.5,11.6-22.8,21.7c-6.3,10.2-10.8,22.9-13.5,38.3c-1.9,11.5-2.9,31.4-2.9,59.6c0,46.5-2.1,78.9-6.3,97.4
	c-4.2,18.4-11.9,33.2-23.2,44.4c-11.3,11.1-27.8,19.9-49.6,26.4c-14.6,4.3-37.6,6.5-69,6.5h-19v-86.2c25.6,0,42.4-1.6,50.3-4.9
	c7.9-3.2,13.7-7.9,17.4-14s5.6-16.5,5.7-31.1c0.1-14.6,1.1-42.5,3.1-83.7c1.2-24.9,4.4-44.9,9.7-59.8c5.3-15,12.3-27.7,21-38.1
	s19.9-19.6,33.6-27.5c-17.7-11.5-30.7-22.8-38.8-33.8c-11.3-15.8-18.9-35.9-23-60.4c-2.6-16.8-4.6-53.7-5.7-110.7
	c-0.2-18-1.9-29.9-4.9-35.9s-8.4-10.6-16.2-13.8s-25.2-4.9-52.3-4.9v-85.9h19c32.3,0,57.1,2.5,74.4,7.5c17.2,5,31.7,13.6,43.5,25.7
	c11.7,12.1,19.7,26.9,23.9,44.6c4.2,17.6,6.3,45.3,6.3,83.2c0,43.8,1.8,72.5,5.4,85.9c5.3,19.2,13.3,32.9,24.1,41.1
	s27.2,13,49.2,14.2L876.2,541.8L876.2,541.8z"/>
</svg>
