<?xml version="1.0" encoding="utf-8"?>
<svg version="1.1" xmlns="http://www.w3.org/2000/svg" width="1024" height="1024" viewBox="0 0 1024 1024">
  <path d="M873.42,270.57H150.58c-81.09,0-135.9,65.32-121.8,145.2l34,192.4c14.13,79.87,92,145.26,173.13,145.26H788.06c81.08,0,159-65.39,173.13-145.26l34-192.4C1009.32,335.89,954.54,270.57,873.42,270.57Zm82.24,158.92-31.24,165c-13,68.48-84.51,124.55-159,124.55H258.54c-74.45,0-146-56.07-159-124.55l-31.24-165C55.39,361,105.71,305,180.17,305H843.83C918.31,305,968.61,361,955.66,429.49Z"/>
  <path d="M228.16,431.47a35,35,0,1,1-35-35A35,35,0,0,1,228.16,431.47Zm124.44-35a35,35,0,1,0,35,35A35,35,0,0,0,352.6,396.47Zm159.41,0a35,35,0,1,0,35,35A35,35,0,0,0,512,396.47Zm124.4,35a35,35,0,1,0,35-35A35,35,0,0,0,636.41,431.49Zm194.41-35a35,35,0,1,0,35,35A35,35,0,0,0,830.82,396.47ZM272.89,557.54a35,35,0,1,0,35,35A35,35,0,0,0,272.89,557.54Zm159.42,0a35,35,0,1,0,35,35A35,35,0,0,0,432.31,557.54Zm159.37,0a35,35,0,1,0,35,35A35,35,0,0,0,591.68,557.54Zm124.45,35a35,35,0,1,0,35-35A35,35,0,0,0,716.13,592.52Z"/>
</svg>
