<?xml version="1.0" encoding="utf-8"?>
<svg version="1.1" xmlns="http://www.w3.org/2000/svg" width="1024" height="1024" viewBox="0 0 1024 1024">
<path d="M944.8,514.8v-18.2H820.9C813.5,338.3,687.4,211.2,529.7,202V84.6h-18.2v116.9c-166.2,0-301.8,130.8-309.4,295.1H84.3v18.2
	h117.5c0.6,49.9,13,97.1,34.5,138.7c-14.4,8-24.1,23.3-24.1,40.8c0,25.8,20.9,46.7,46.7,46.7c12.3,0,23.5-4.8,31.8-12.6
	c56.2,57.1,134.3,92.5,220.7,92.5v124.1h18.2V820.4c46.4-2.7,90.2-15.6,128.9-36.6L714.9,901c0,0,62.2-23.7,131.1-104.5
	c68-79.8,79.3-140.9,79.3-140.9l-120.4-45c10.2-30.1,15.9-62.3,16.2-95.7H944.8z M803.6,496.6H674.8c-6.9-77.7-68-139.9-145.1-148.4
	V220.6C677.7,229.3,796,348.4,803.6,496.6z M511.5,496.6h-149c8-75.5,71.5-134.5,149-135.3V496.6z M511.5,514.8v149.6
	c-82.3-0.9-148.8-67.4-149.9-149.6H511.5z M529.7,515.6L590.9,643c-18.3,11-39,18.2-61.3,20.6V515.6z M549.3,514.8h115.5
	c-0.2,14.2-2.3,27.9-6.1,40.9L549.3,514.8z M529.7,496.6V362.2c70.6,7.7,126.7,63.8,134.2,134.4H529.7z M511.5,220v127.2
	c-85.6,0-155.9,65.7-163.3,149.4H220.6C228.5,342.8,355.7,220.4,511.5,220z M301.4,713.7c2.7-5.9,4.2-12.5,4.2-19.4
	c0-25.8-20.9-46.7-46.7-46.7c-1.7,0-3.4,0.1-5,0.3c-21-39.8-33.1-85.1-33.6-133.1h127.3c1.9,88.8,74.5,160.3,163.9,160.3v128.5
	C428.9,803.5,354.4,769,301.4,713.7z M529.7,803.1v-129c23.8-2.6,46-10.3,65.6-22l24.6,51.2l31.3,65.1
	C614.7,788.3,573.5,800.5,529.7,803.1z M788.9,604.5l-58.6-21.9l-62.1-23.2c4.3-14.1,6.8-29.1,7.1-44.5h128.5
	C803.6,546.2,798.4,576.3,788.9,604.5z M511.5,5C231.9,5,5.3,231.6,5.3,511.2c0,279.6,226.5,506.1,506.2,506.1
	c279.6,0,506.1-226.6,506.1-506.1C1017.7,231.6,791.1,5,511.5,5z M516.5,984.1c-258.5,0-468-209.4-468-467.9
	c0-258.4,209.5-468,468-468c258.6,0,468,209.6,468,468C984.4,774.7,775.1,984.1,516.5,984.1z M344.5,301.5
	c0-18.6,15.1-33.6,33.6-33.6s33.6,15.1,33.6,33.6s-15.1,33.6-33.6,33.6S344.5,320,344.5,301.5z"/>
</svg>
