<?xml version="1.0" encoding="utf-8"?>
<svg version="1.1" xmlns="http://www.w3.org/2000/svg" width="1024" height="1024" viewBox="0 0 1024 1024">
<path d="M679.8,548.4c66.5,0,162.8-13.7,162.8-92.8c0.2-6.1-0.4-12.2-1.6-18.2l-39.6-172.1c-9.1-37.9-17.2-55-83.6-88.3
	c-51.6-26.4-163.9-69.9-197.2-69.9c-30.9,0-39.9,39.9-76.8,39.9c-35.5,0-61.9-29.8-95.1-29.8c-31.9,0-52.7,21.7-68.8,66.5
	c0,0-44.7,126.1-50.5,144.4c-0.9,3.4-1.3,6.8-1.2,10.3c0,49,193,209.8,451.6,209.8 M852.8,487.7c9.2,43.5,9.2,48.1,9.2,53.9
	c0,74.4-83.7,115.8-193.7,115.8c-248.6,0.2-466.4-145.5-466.4-241.8c0-13.4,2.7-26.7,8-39C120.4,381,4.7,397,4.7,499.2
	c0,167.4,396.6,373.7,710.6,373.7c240.8,0,301.5-108.9,301.5-194.9c0-67.6-58.5-144.4-163.9-190.3"/>
</svg>
