<?xml version="1.0" encoding="utf-8"?>
<svg version="1.1" xmlns="http://www.w3.org/2000/svg" width="1024" height="1024" viewBox="0 0 1024 1024">
<path d="M267.3,341.8l-254.3,0l0-254.3l254.3,0L267.3,341.8z M610.1,670.7l-254.3,0l0-254.3l254.3,0V670.7z M267.3,670.7l-254.3,0
	l0-254.3l254.3,0L267.3,670.7z M267.3,1013.5l-254.3,0l0-254.3l254.3,0L267.3,1013.5z M610.1,1013.5l-254.3,0l0-254.3l254.3,0
	L610.1,1013.5z M939.9,1013.5l-254.3,0V759.2l254.3,0V1013.5z M988,282.5l-254.3,0l0-254.3l254.3,0L988,282.5z M661.6,242.7
	L431.7,351.5L322.9,121.6L552.8,12.8L661.6,242.7z M827.6,701.6L623.8,549.5l152.1-203.8l203.8,152.1L827.6,701.6z"/>
</svg>
