<?xml version="1.0" encoding="utf-8"?>
<svg version="1.1" xmlns="http://www.w3.org/2000/svg" width="1024" height="1024" viewBox="0 0 1024 1024">
<path d="M238.4,314.9c63.2,0,115.9,20,158,60.1c42.1,40,63.1,90.2,63.1,150.6s-21.2,110.3-63.7,149.9c-42.5,39.6-96,59.3-160.6,59.3
	c-61.7,0-113.1-19.8-154.1-59.3C40,635.9,19.5,586.3,19.5,526.8c0-61.1,20.7-111.7,62.1-151.8C122.9,335,175.2,314.9,238.4,314.9z
	 M240.8,370.6c-46.8,0-85.3,14.6-115.5,43.9c-30.1,29.3-45.2,66.7-45.2,112.2c0,44.1,15.1,80.9,45.4,110.2
	c30.2,29.3,68.1,43.9,113.6,43.9c45.7,0,83.8-14.9,114.3-44.8c30.5-29.9,45.8-67.1,45.8-111.6c0-43.4-15.3-79.8-45.8-109.4
	C322.8,385.4,285.3,370.6,240.8,370.6z M472.1,320.8h58.6v409.3h-58.6V320.8z M762.4,314.9c63.2,0,115.9,20,158,60.1
	c42.1,40,63.1,90.2,63.1,150.6s-21.2,110.3-63.7,149.9s-96,59.3-160.6,59.3c-61.7,0-113.1-19.8-154.1-59.3
	c-41.1-39.6-61.6-89.1-61.6-148.7c0-61.1,20.7-111.7,62.1-151.8C646.8,335,699.2,314.9,762.4,314.9z M764.7,370.6
	c-46.8,0-85.3,14.6-115.5,43.9S604,481.3,604,526.8c0,44.1,15.1,80.9,45.4,110.2c30.2,29.3,68.1,43.9,113.6,43.9
	c45.7,0,83.8-14.9,114.3-44.8c30.5-29.9,45.8-67.1,45.8-111.6c0-43.4-15.3-79.8-45.8-109.4C846.7,385.4,809.2,370.6,764.7,370.6z"/>
</svg>
