<?xml version="1.0" encoding="utf-8"?>
<!-- Generator: Adobe Illustrator 20.1.0, SVG Export Plug-In . SVG Version: 6.00 Build 0)  -->
<svg version="1.1" id="Layer_1" xmlns="http://www.w3.org/2000/svg" xmlns:xlink="http://www.w3.org/1999/xlink" x="0px" y="0px"
	 viewBox="0 0 1024 1024" style="enable-background:new 0 0 1024 1024;" xml:space="preserve">
<path d="M878.6,122.5c-1.4-5.3-3.2-9.6-5.7-13c-3.9-3.4-7.5-5.9-10.7-7.8c-3.2-1.6-6.9-2.5-10.7-2.5H683l0.2,176h75
	c11.7,0,22.6,2.7,32.9,8l0.9,0.5c6.4,3.7,12.8,8.2,19.4,13.9l3.7,3.4l3,4.1c6.4,8.5,11,18.5,13.7,29.9v0.5c1.1,5,2.1,10.3,2.7,15.3
	l45.9-16.7V138.3C880.5,132.8,879.8,127.5,878.6,122.5L878.6,122.5z M627.4,23.3c-1.4-5.3-3.2-9.6-5.7-13c-3.9-3.4-7.5-5.9-10.7-7.8
	c-3.2-1.6-6.9-2.5-10.7-2.5H375.5c-3.9,0-7.5,0.9-10.7,2.5c-3.2,1.8-6.9,4.3-10.7,7.8c-2.5,3.4-4.6,7.8-5.7,13
	c-1.4,5.3-1.8,10.5-1.8,15.5v94.6h77.7c12.6,0,24.5,3,35.4,8.7l0.9,0.5c6.9,3.7,13.5,8.5,20.6,14.6l4.1,3.7l3.4,4.6
	c6.9,9.1,11.7,19.9,14.6,31.8v0.5c2.3,9.4,3.4,19,3.4,28.3V275l122.7,0.2V38.9C629.5,33.8,628.8,28.6,627.4,23.3L627.4,23.3z
	 M451.2,210.3c-1.4-5.3-3.2-9.6-5.7-13c-3.9-3.4-7.5-5.9-10.7-7.8c-3.2-1.6-6.9-2.5-10.7-2.5H199.1c-3.9,0-7.5,0.9-10.7,2.5
	c-3.2,1.8-6.9,4.3-10.7,7.8c-2.5,3.4-4.6,7.8-5.7,13c-1.4,5.3-1.8,10.5-1.8,15.5v117.3l283,103.3V225.8
	C453.3,220.8,452.6,215.5,451.2,210.3L451.2,210.3z M785.4,346.5c-1.4-5.3-3.2-9.6-5.7-13c-3.9-3.4-7.5-5.9-10.7-7.8
	c-3.2-1.6-6.9-2.5-10.7-2.5H533.5c-3.9,0-7.5,0.9-10.7,2.5c-3.2,1.8-6.9,4.3-10.7,7.8c-0.7,0.9-1.4,1.8-1.8,3
	c-1.4,2.5-2.5,5.3-3.4,8.5c-0.2,0.5-0.2,1.1-0.5,1.6c-1.4,5.3-1.8,10.5-1.8,15.5v102.9c2.5,0.7,5,1.1,7.8,1.1c3.2,0,6.2-0.5,9.1-1.6
	l266.1-96.7v-5.7C787.2,357,786.5,351.8,785.4,346.5L785.4,346.5z M935.3,315.2c-0.5,0-0.9,0-1.4,0c-2.5,0.2-5.3,0.7-7.8,1.6
	c0,0-411,149.5-414.2,149.5c-2.5,0-5.3-0.5-7.8-1.1c-0.5-0.2-0.9-0.2-1.4-0.5l-1.4-0.5L97.8,317c-3-1.1-6.2-1.6-9.1-1.6
	c-14.2,0-26.7,11.4-26.7,26.7c0,107.4,0,405,0,405c0,25.4,13.9,48.7,36.3,60.6l380.8,207.8c10.3,5.9,21.7,8.7,32.9,8.7
	c11.4,0,22.6-2.7,32.9-8.7l380.8-207.8c22.2-11.9,36.3-35.2,36.3-60.6V341.9C962.1,326.6,949.5,315.2,935.3,315.2L935.3,315.2z
	 M881.8,429.5v310.9L512,941.9L142.2,740.3c0-28.1,0-296.7,0-321.8l1.4,0.5l331.9,121.1c1.6,0.7,3.2,1.1,4.8,1.6
	c7.8,2.5,16,3.9,24,4.6c2.5,0.2,5.3,0.2,7.8,0.2c12.6,0,24.9-2.1,36.6-6.4L881.8,419L881.8,429.5L881.8,429.5z"/>
</svg>
