<svg version="1.1" xmlns="http://www.w3.org/2000/svg" width="1024" height="1024" viewBox="0 0 1024 1024">
<path d="M961 672c0-96.4-99.6-179-270.6-210.6l22.6 121.6-119 1c-4.6-9.6-26-136-26-136s16 6-12 6l-109 263c0 0-104.6-4.8-113-3l-196-105 129-49-23-67.8c-121.2 40.2-181 101.8-181 179.8 0 123.8 201 224 449 224s449-100.2 449-224zM410.6 534.6l103.6-37.6-90 192.2h-67.2l-163-76 105.8-38.4c-41.8-199-191.2-309.4-259.8-231 84-162.8 295.6-34.2 370.6 190.8zM782 192l-6.4-81.6 179.2 110.4-161.6 111.2-5.2-76c-193.4-3.2-118.2 241.2-116 304h-44c-38.4-112.2-70-358 154-368z"></path>
</svg>
