<?xml version="1.0" encoding="utf-8"?>
<svg version="1.1" xmlns="http://www.w3.org/2000/svg" width="1024" height="1024" viewBox="0 0 1024 1024">
<path d="M470.8,846.8c-14,8.2-33.6,12.4-58.4,12.4c-21,0-37.8-6-50.2-17.8s-18.6-31.2-18.6-58c-22.4,26.8-48.4,46.2-78,58
	s-61.8,17.8-96.2,17.8c-22.4,0-43.6-2.6-63.8-7.6c-20.2-5.2-37.6-13-52.2-24c-14.6-10.8-26.4-25-35-42.6s-13-38.8-13-63.8
	c0-28,4.8-51,14.4-69c9.6-17.8,22.2-32.4,37.8-43.6s33.6-19.6,53.6-25.4c20.2-5.8,40.8-10.6,61.8-14.4c22.4-4.4,43.6-7.8,63.8-10
	s37.8-5.4,53.2-9.6c15.4-4.2,27.4-10.2,36.4-18.2s13.4-19.6,13.4-35c0-17.8-3.4-32.2-10-43.2c-6.8-10.8-15.4-19.2-25.8-25
	c-10.6-5.8-22.4-9.6-35.4-11.4c-13-2-26-2.8-38.8-2.8c-34.4,0-63.2,6.6-86.2,19.6s-35.4,37.8-37.4,74.2H24.8
	C25.6,477,32,451.2,43.6,430c11.4-21,26.8-38.2,46-51.2s41-22.6,65.6-28.2c24.6-5.8,50.8-8.6,79-8.6c22.4,0,44.6,1.6,66.6,4.8
	s42,9.8,59.8,19.6c17.8,9.8,32.2,23.8,43.2,41.6c10.8,17.8,16.2,41.2,16.2,69.8V732c0,19.2,1.2,33.2,3.4,42
	c2.2,9,9.8,13.4,22.6,13.4c7,0,15.4-1.2,25-3.8v63.2L470.8,846.8z M338.6,593c-10.2,7.6-23.6,13.2-40.2,16.6
	c-16.6,3.6-34,6.4-52.2,8.6s-36.6,4.8-55,7.6c-18.6,2.8-35.2,7.4-49.8,13.8c-14.8,6.4-26.6,15.4-36,27.2
	c-9.2,11.8-13.8,27.8-13.8,48.2c0,13.4,2.8,24.6,8.2,33.8s12.4,16.6,21,22.4s18.6,9.8,30.2,12.4c11.4,2.6,23.6,3.8,36.4,3.8
	c26.8,0,49.8-3.6,69-11s34.8-16.6,47-27.6c12.2-11.2,21-23.2,26.8-36.2s8.6-25.2,8.6-36.8V593H338.6z M630.8,164.8v255.8h2
	c13.4-27.4,34.4-47.4,63.2-59.8s60.4-18.6,94.8-18.6c38.4,0,71.6,7,100.2,21c28.4,14,52,33,70.8,57s33,51.6,42.6,82.8
	s14.4,64.6,14.4,99.6c0,35.2-4.6,68.4-13.8,99.6c-9.2,31.4-23.4,58.6-42.2,82s-42.4,41.6-70.8,55c-28.4,13.4-61.4,20.2-99.2,20.2
	c-12.2,0-25.8-1.2-40.8-3.8s-29.8-6.8-44.6-12.4c-14.6-5.8-28.6-13.6-41.6-23.4s-24.2-22.2-33-36.8h-2v66.2h-81.4v-684h81.4
	L630.8,164.8z M923.4,529.2c-6-22-15.4-41.6-27.8-59c-12.4-17.2-28.4-31-48-41.2c-19.4-10.2-42.4-15.4-68.4-15.4
	c-27.4,0-50.8,5.4-70,16.2s-34.8,25-47,42.6s-21,37.6-26.4,59.8c-5.4,22.4-8.2,45-8.2,68c0,24.2,2.8,47.8,8.6,70.4
	s14.8,42.6,27.4,59.8c12.4,17.2,28.6,31.2,48.4,41.6c19.8,10.6,43.8,15.8,71.8,15.8s51.6-5.4,70.4-16.2c18.8-10.8,34-25.2,45.6-43.2
	c11.4-17.8,19.8-38.4,25-61.4s7.6-46.6,7.6-70.8C932.6,573.8,929.6,551.2,923.4,529.2L923.4,529.2z"/>
</svg>
