<svg version="1.1" xmlns="http://www.w3.org/2000/svg" width="1024" height="1024" viewBox="0 0 1024 1024">
<path d="M364.3,882c-145.2-58.5-247.6-200.7-247.6-366.8c0-218.2,177-395.3,395.3-395.3c29.4,0,58,3.2,85.8,9.3l66-89
	C616,25,565,16.6,512,16.6c-275.3,0-498.3,223-498.3,498.3c0,200,117.6,372.5,287.4,451.9L364.3,882L364.3,882z M733.4,68.7
	l-62.8,84.4c139.3,61.2,236.7,200.2,236.7,362c0,218.2-177,395.3-395.3,395.3c-25,0-49.6-2.3-73.3-6.8l-66.9,89.9
	c44.4,13,91.5,20,140.2,20c275.3,0,498.3-223,498.3-498.3C1010.3,319.5,897.5,150.2,733.4,68.7L733.4,68.7z M319,947.1L502.9,705
	l84.2,63.7l-20-232.3l-229.1,43.5l84,63.9L238.5,885.4L319,947.1z M599.6,382.5l195.5-232.3l-77.8-65.5L522.2,317l-81-68l8,233.2
	l231.4-31.9L599.6,382.5L599.6,382.5z"/>
</svg>
