<svg version="1.1" xmlns="http://www.w3.org/2000/svg" width="1024" height="1024" viewBox="0 0 1024 1024">
<path d="M192.6,73.7l30.9,15.4C228,91,268.2,92,344,92c16.8,0,41.9-0.4,75.4-1.1s58.7-1.1,75.4-1.1c13.7,0,34.2,0.1,61.4,0.3
	s47.7,0.3,61.4,0.3H785c2.3,0,6.3,0.1,12,0.3s9.6,0.2,11.7,0s5.1-0.8,9.1-1.7s7.3-2.7,10-5.1c2.7-2.5,5.5-5.8,8.6-10l24-0.6
	c1.5,0,4.2,0.1,8,0.3s6.5,0.3,8,0.3c0.8,42.7,1.1,106.7,1.1,192c0,30.5-1,51.2-2.9,62.3c-14.6,5.1-27.6,8.6-38.6,10.1
	c-9.5-16.8-19.8-41.1-30.9-73.1c-1.1-3.4-3.2-12.6-6.3-27.4c-3-14.9-5.8-28.9-8.3-42s-3.9-19.9-4.3-20.3c-2.3-3-4.6-5.4-6.9-7.1
	s-5.2-2.9-8.9-3.4c-3.6-0.6-6.1-1-7.4-1.4s-4.8-0.5-10.3-0.3s-8.7,0.3-9.4,0.3c-6.5,0-19.1-0.1-38-0.3s-33-0.3-42.6-0.3
	s-21.7,0.4-36.6,1.1s-28.4,1.9-40.6,3.4c-3.4,30.9-5,56.8-4.6,77.7c0,35.8,0.4,109.7,1.1,221.7s1.1,198.7,1.1,260
	c0,6.1-0.5,19.7-1.4,40.9c-1,21.1-1,38.6,0,52.3s3.3,26.9,7.1,39.4c15.2,8,38.9,16.1,70.9,24.3s54.9,15.3,68.6,21.4
	c1.9,15.2,2.9,24.8,2.9,28.6c0,5.3-0.6,10.9-1.7,16.6l-19.4,0.6c-29,0.8-70.5-0.8-124.6-4.6s-93.5-5.7-118.3-5.7
	c-19,0-47.8,1.7-86.3,5.1s-67.4,5.1-86.9,5.1c-1.1-19.4-1.7-29.3-1.7-29.7V916c6.5-10.3,18.2-18.5,35.1-24.6
	c17-6.1,35.7-11.6,56.3-16.6s35.4-10.1,44.6-15.4c7.2-16,10.9-89,10.9-218.9c0-38.5-0.6-96.2-1.7-173.1c-1.1-77-1.7-134.7-1.7-173.1
	v-66.9c0-0.8,0.1-3.7,0.3-8.9s0.3-9.9,0.3-14.3c0-4.4-0.2-9.2-0.6-14.6s-1-9.9-1.7-13.7c-0.8-3.8-1.7-6.5-2.9-8
	c-4.2-4.6-35-6.9-92.6-6.9c-12.6,0-30.3,2.3-53.1,6.9c-22.9,4.6-38.1,9.5-45.7,14.9c-7.2,5-13.7,18.8-19.4,41.4s-11.7,43.8-18,63.4
	s-14.4,29.8-24.3,30.6c-16-9.9-26.7-18.3-32-25.1V74.2L192.6,73.7L192.6,73.7z"/>
</svg>
