<svg version="1.1" xmlns="http://www.w3.org/2000/svg" width="1024" height="1024" viewBox="0 0 1024 1024">
<path d="M128,896h896v128H0V0h128V896z M174.1,171l382,2c1-2,2-4.1,3.1-5.1c26.6-46.1,85-62.5,131.1-35.8s62.5,85,35.8,131.1
	c-26.6,46.1-85,62.5-131.1,35.8c-17.4-10.2-30.7-24.6-38.9-41l-382-2L174.1,171L174.1,171z M171,435.2h603.1c1-2,2-4.1,3.1-5.1
	c26.6-46.1,85-62.5,131.1-35.8s62.5,85,35.8,131.1c-26.6,46.1-85,62.5-131.1,35.8c-17.4-10.2-30.7-24.6-38.9-41H171L171,435.2
	L171,435.2z M174.1,713.7l103.4,2c1-2,2-4.1,3.1-5.1c26.6-46.1,85-62.5,131.1-35.8s62.5,85,35.8,131.1s-85,62.5-131.1,35.8
	c-17.4-10.2-30.7-24.6-38.9-41l-103.4-3.1L174.1,713.7L174.1,713.7z"/>
</svg>
