<svg version="1.1" xmlns="http://www.w3.org/2000/svg" width="1024" height="1024" viewBox="0 0 1024 1024">
<path d="M584.7,701c-18-22-14.6-58.9-14.6-58.9s67.1-66.5,81.8-155.9c39.4,0,63.7-95,24.3-128.4c1.7-35.2,50.6-276.2-197.2-276.2
	S280.1,322.6,281.8,357.8c-39.3,33.4-15.1,128.4,24.3,128.4c14.6,89.3,81.8,155.9,81.8,155.9s-0.5,62.8-23.4,66.4
	C290.8,720.3,16,841.5,16,974.4l666.7-1.2c0,0-67.3-30.4-102-116.1C545.9,771.5,584.7,701,584.7,701L584.7,701z M809.6,577.6
	c-109.6,0-198.4,88.8-198.4,198.4S700,974.4,809.6,974.4S1008,885.6,1008,776S919.2,577.6,809.6,577.6z M772.4,900l-82.1-106.9
	l36.4-38l45.8,58.1l143.4-117l17.9,17.9L772.4,900L772.4,900z"/>
</svg>
