<svg version="1.1" xmlns="http://www.w3.org/2000/svg" width="1024" height="1024" viewBox="0 0 1024 1024">
<path d="M180.4,292.9c0-121,98.1-219.1,219.1-219.1S618.5,172,618.5,292.9S520.4,512,399.4,512S180.4,413.9,180.4,292.9z M432.6,812
	c0-97.9,61.1-181.5,147.3-214.7c-22.4-7.5-49.4-13.1-79.9-13.1l-201.1,0.4c-91.1-0.4-150.8,49.9-150.8,49.9
	C37.3,718.3,7.8,921.7,0,1024l573.4,0.1C490.7,989.2,432.6,907.4,432.6,812z M861,812c0,109.6-88.8,198.4-198.4,198.4
	S464.2,921.6,464.2,812S553,613.6,662.6,613.6S861,702.4,861,812z M786.8,750.1l-17.9-17.9l-143.4,117l-45.8-58.1l-36.4,38
	L625.4,936L786.8,750.1z"/>
</svg>
