<svg version="1.1" xmlns="http://www.w3.org/2000/svg" width="998" height="1024" viewBox="0 0 998 1024">
<path d="M115.537 480.168c94.147-80.842 168.589-144.842 370.358-30.653 97.011 54.737 175.158 75.453 240.337 75.453 114.021 0 187.789-63.495 251.621-118.232 22.737-19.537 25.768-54.4 6.568-77.474s-53.221-26.274-75.958-6.737c-94.147 80.842-168.589 144.842-370.358 30.653-266.611-150.737-391.579-43.284-491.958 42.947-22.737 19.537-25.768 54.232-6.568 77.474s53.221 26.274 75.958 6.568v0zM908.463 597.726c-94.147 80.842-168.589 144.842-370.358 30.653-266.611-150.568-391.579-43.284-491.958 42.947-22.737 19.537-25.768 54.4-6.568 77.474 19.2 23.242 53.221 26.274 75.958 6.737 94.147-80.842 168.589-144.842 370.358-30.821 97.011 54.737 175.158 75.453 240.337 75.453 114.021 0 187.789-63.495 251.621-118.232 22.737-19.537 25.768-54.232 6.568-77.474-19.2-23.411-53.221-26.274-75.958-6.737z"></path>
</svg>
